%TF.GenerationSoftware,KiCad,Pcbnew,7.0.6*%
%TF.CreationDate,2024-04-01T13:07:54+03:00*%
%TF.ProjectId,SIM800 GPS Module,53494d38-3030-4204-9750-53204d6f6475,rev?*%
%TF.SameCoordinates,Original*%
%TF.FileFunction,Drillmap*%
%TF.FilePolarity,Positive*%
%FSLAX45Y45*%
G04 Gerber Fmt 4.5, Leading zero omitted, Abs format (unit mm)*
G04 Created by KiCad (PCBNEW 7.0.6) date 2024-04-01 13:07:54*
%MOMM*%
%LPD*%
G01*
G04 APERTURE LIST*
%ADD10C,0.050000*%
%ADD11C,0.200000*%
G04 APERTURE END LIST*
D10*
X12090400Y-7569200D02*
X15290800Y-7569200D01*
X15290800Y-9728200D01*
X12090400Y-9728200D01*
X12090400Y-7569200D01*
D11*
X12348677Y-10042184D02*
X12348677Y-9842184D01*
X12348677Y-9842184D02*
X12396296Y-9842184D01*
X12396296Y-9842184D02*
X12424867Y-9851708D01*
X12424867Y-9851708D02*
X12443915Y-9870755D01*
X12443915Y-9870755D02*
X12453439Y-9889803D01*
X12453439Y-9889803D02*
X12462962Y-9927898D01*
X12462962Y-9927898D02*
X12462962Y-9956470D01*
X12462962Y-9956470D02*
X12453439Y-9994565D01*
X12453439Y-9994565D02*
X12443915Y-10013612D01*
X12443915Y-10013612D02*
X12424867Y-10032660D01*
X12424867Y-10032660D02*
X12396296Y-10042184D01*
X12396296Y-10042184D02*
X12348677Y-10042184D01*
X12548677Y-10042184D02*
X12548677Y-9908850D01*
X12548677Y-9946946D02*
X12558201Y-9927898D01*
X12558201Y-9927898D02*
X12567724Y-9918374D01*
X12567724Y-9918374D02*
X12586772Y-9908850D01*
X12586772Y-9908850D02*
X12605820Y-9908850D01*
X12672486Y-10042184D02*
X12672486Y-9908850D01*
X12672486Y-9842184D02*
X12662962Y-9851708D01*
X12662962Y-9851708D02*
X12672486Y-9861231D01*
X12672486Y-9861231D02*
X12682010Y-9851708D01*
X12682010Y-9851708D02*
X12672486Y-9842184D01*
X12672486Y-9842184D02*
X12672486Y-9861231D01*
X12796296Y-10042184D02*
X12777248Y-10032660D01*
X12777248Y-10032660D02*
X12767724Y-10013612D01*
X12767724Y-10013612D02*
X12767724Y-9842184D01*
X12901058Y-10042184D02*
X12882010Y-10032660D01*
X12882010Y-10032660D02*
X12872486Y-10013612D01*
X12872486Y-10013612D02*
X12872486Y-9842184D01*
X13129629Y-10042184D02*
X13129629Y-9842184D01*
X13129629Y-9842184D02*
X13196296Y-9985041D01*
X13196296Y-9985041D02*
X13262962Y-9842184D01*
X13262962Y-9842184D02*
X13262962Y-10042184D01*
X13443915Y-10042184D02*
X13443915Y-9937422D01*
X13443915Y-9937422D02*
X13434391Y-9918374D01*
X13434391Y-9918374D02*
X13415343Y-9908850D01*
X13415343Y-9908850D02*
X13377248Y-9908850D01*
X13377248Y-9908850D02*
X13358201Y-9918374D01*
X13443915Y-10032660D02*
X13424867Y-10042184D01*
X13424867Y-10042184D02*
X13377248Y-10042184D01*
X13377248Y-10042184D02*
X13358201Y-10032660D01*
X13358201Y-10032660D02*
X13348677Y-10013612D01*
X13348677Y-10013612D02*
X13348677Y-9994565D01*
X13348677Y-9994565D02*
X13358201Y-9975517D01*
X13358201Y-9975517D02*
X13377248Y-9965993D01*
X13377248Y-9965993D02*
X13424867Y-9965993D01*
X13424867Y-9965993D02*
X13443915Y-9956470D01*
X13539153Y-9908850D02*
X13539153Y-10108850D01*
X13539153Y-9918374D02*
X13558201Y-9908850D01*
X13558201Y-9908850D02*
X13596296Y-9908850D01*
X13596296Y-9908850D02*
X13615343Y-9918374D01*
X13615343Y-9918374D02*
X13624867Y-9927898D01*
X13624867Y-9927898D02*
X13634391Y-9946946D01*
X13634391Y-9946946D02*
X13634391Y-10004089D01*
X13634391Y-10004089D02*
X13624867Y-10023136D01*
X13624867Y-10023136D02*
X13615343Y-10032660D01*
X13615343Y-10032660D02*
X13596296Y-10042184D01*
X13596296Y-10042184D02*
X13558201Y-10042184D01*
X13558201Y-10042184D02*
X13539153Y-10032660D01*
X13720105Y-10023136D02*
X13729629Y-10032660D01*
X13729629Y-10032660D02*
X13720105Y-10042184D01*
X13720105Y-10042184D02*
X13710582Y-10032660D01*
X13710582Y-10032660D02*
X13720105Y-10023136D01*
X13720105Y-10023136D02*
X13720105Y-10042184D01*
X13720105Y-9918374D02*
X13729629Y-9927898D01*
X13729629Y-9927898D02*
X13720105Y-9937422D01*
X13720105Y-9937422D02*
X13710582Y-9927898D01*
X13710582Y-9927898D02*
X13720105Y-9918374D01*
X13720105Y-9918374D02*
X13720105Y-9937422D01*
M02*
