%TF.GenerationSoftware,KiCad,Pcbnew,7.0.6*%
%TF.CreationDate,2024-04-01T13:07:51+03:00*%
%TF.ProjectId,SIM800 GPS Module,53494d38-3030-4204-9750-53204d6f6475,rev?*%
%TF.SameCoordinates,Original*%
%TF.FileFunction,Soldermask,Top*%
%TF.FilePolarity,Negative*%
%FSLAX46Y46*%
G04 Gerber Fmt 4.6, Leading zero omitted, Abs format (unit mm)*
G04 Created by KiCad (PCBNEW 7.0.6) date 2024-04-01 13:07:51*
%MOMM*%
%LPD*%
G01*
G04 APERTURE LIST*
G04 Aperture macros list*
%AMRoundRect*
0 Rectangle with rounded corners*
0 $1 Rounding radius*
0 $2 $3 $4 $5 $6 $7 $8 $9 X,Y pos of 4 corners*
0 Add a 4 corners polygon primitive as box body*
4,1,4,$2,$3,$4,$5,$6,$7,$8,$9,$2,$3,0*
0 Add four circle primitives for the rounded corners*
1,1,$1+$1,$2,$3*
1,1,$1+$1,$4,$5*
1,1,$1+$1,$6,$7*
1,1,$1+$1,$8,$9*
0 Add four rect primitives between the rounded corners*
20,1,$1+$1,$2,$3,$4,$5,0*
20,1,$1+$1,$4,$5,$6,$7,0*
20,1,$1+$1,$6,$7,$8,$9,0*
20,1,$1+$1,$8,$9,$2,$3,0*%
G04 Aperture macros list end*
%ADD10C,2.004000*%
%ADD11RoundRect,0.102000X0.900000X-0.900000X0.900000X0.900000X-0.900000X0.900000X-0.900000X-0.900000X0*%
%ADD12R,1.473200X0.914400*%
%ADD13R,1.473200X3.200400*%
%ADD14O,1.600000X0.600000*%
%ADD15O,0.600000X1.600000*%
%ADD16RoundRect,0.135000X-0.135000X-0.185000X0.135000X-0.185000X0.135000X0.185000X-0.135000X0.185000X0*%
%ADD17RoundRect,0.150000X-0.587500X-0.150000X0.587500X-0.150000X0.587500X0.150000X-0.587500X0.150000X0*%
%ADD18RoundRect,0.102000X-0.500000X-0.525000X0.500000X-0.525000X0.500000X0.525000X-0.500000X0.525000X0*%
%ADD19RoundRect,0.102000X-0.525000X-1.100000X0.525000X-1.100000X0.525000X1.100000X-0.525000X1.100000X0*%
G04 APERTURE END LIST*
D10*
%TO.C,J3*%
X126238000Y-85344000D03*
X126238000Y-87884000D03*
X126238000Y-90424000D03*
D11*
X126238000Y-92964000D03*
%TD*%
D12*
%TO.C,U2*%
X128485900Y-81992500D03*
X128485900Y-79692500D03*
X128485900Y-77392500D03*
D13*
X121958100Y-79692500D03*
%TD*%
D14*
%TO.C,U1*%
X131050000Y-80150000D03*
X131050000Y-81250000D03*
X131050000Y-82350000D03*
X131050000Y-83450000D03*
X131050000Y-84550000D03*
X131050000Y-85650000D03*
X131050000Y-86750000D03*
X131050000Y-87850000D03*
X131050000Y-88950000D03*
X131050000Y-90050000D03*
X131050000Y-91150000D03*
X131050000Y-92250000D03*
D15*
X134500000Y-95000000D03*
X135600000Y-95000000D03*
X136700000Y-95000000D03*
X137800000Y-95000000D03*
X138900000Y-95000000D03*
X140000000Y-95000000D03*
X141100000Y-95000000D03*
X142200000Y-95000000D03*
X143300000Y-95000000D03*
D14*
X146750000Y-92250000D03*
X146750000Y-91150000D03*
X146750000Y-90050000D03*
X146750000Y-88950000D03*
X146750000Y-87850000D03*
X146750000Y-86750000D03*
X146750000Y-85650000D03*
X146750000Y-84550000D03*
X146750000Y-83450000D03*
X146750000Y-82350000D03*
X146750000Y-81250000D03*
X146750000Y-80150000D03*
D15*
X143300000Y-77400000D03*
X142200000Y-77400000D03*
X141100000Y-77400000D03*
X140000000Y-77400000D03*
X138900000Y-77400000D03*
X137800000Y-77400000D03*
X136700000Y-77400000D03*
X135600000Y-77400000D03*
X134500000Y-77400000D03*
%TD*%
D16*
%TO.C,R10*%
X128266000Y-92710000D03*
X129286000Y-92710000D03*
%TD*%
%TO.C,R9*%
X128266000Y-90720000D03*
X129286000Y-90720000D03*
%TD*%
%TO.C,R8*%
X128266000Y-88730000D03*
X129286000Y-88730000D03*
%TD*%
%TO.C,R7*%
X128266000Y-86740000D03*
X129286000Y-86740000D03*
%TD*%
%TO.C,R3*%
X128266000Y-84750000D03*
X129286000Y-84750000D03*
%TD*%
D17*
%TO.C,Q3*%
X149255000Y-93284000D03*
X149255000Y-95184000D03*
X151130000Y-94234000D03*
%TD*%
%TO.C,Q2*%
X149255000Y-88834000D03*
X149255000Y-90734000D03*
X151130000Y-89784000D03*
%TD*%
%TO.C,Q1*%
X149001000Y-84902000D03*
X149001000Y-86802000D03*
X150876000Y-85852000D03*
%TD*%
D18*
%TO.C,J1*%
X150417000Y-81725000D03*
D19*
X148942000Y-80200000D03*
X151892000Y-80200000D03*
%TD*%
M02*
