%TF.GenerationSoftware,KiCad,Pcbnew,7.0.6*%
%TF.CreationDate,2024-04-01T13:07:50+03:00*%
%TF.ProjectId,SIM800 GPS Module,53494d38-3030-4204-9750-53204d6f6475,rev?*%
%TF.SameCoordinates,Original*%
%TF.FileFunction,Copper,L2,Bot*%
%TF.FilePolarity,Positive*%
%FSLAX46Y46*%
G04 Gerber Fmt 4.6, Leading zero omitted, Abs format (unit mm)*
G04 Created by KiCad (PCBNEW 7.0.6) date 2024-04-01 13:07:50*
%MOMM*%
%LPD*%
G01*
G04 APERTURE LIST*
G04 Aperture macros list*
%AMRoundRect*
0 Rectangle with rounded corners*
0 $1 Rounding radius*
0 $2 $3 $4 $5 $6 $7 $8 $9 X,Y pos of 4 corners*
0 Add a 4 corners polygon primitive as box body*
4,1,4,$2,$3,$4,$5,$6,$7,$8,$9,$2,$3,0*
0 Add four circle primitives for the rounded corners*
1,1,$1+$1,$2,$3*
1,1,$1+$1,$4,$5*
1,1,$1+$1,$6,$7*
1,1,$1+$1,$8,$9*
0 Add four rect primitives between the rounded corners*
20,1,$1+$1,$2,$3,$4,$5,0*
20,1,$1+$1,$4,$5,$6,$7,0*
20,1,$1+$1,$6,$7,$8,$9,0*
20,1,$1+$1,$8,$9,$2,$3,0*%
G04 Aperture macros list end*
%TA.AperFunction,ComponentPad*%
%ADD10C,1.800000*%
%TD*%
%TA.AperFunction,ComponentPad*%
%ADD11R,1.800000X1.800000*%
%TD*%
%TA.AperFunction,SMDPad,CuDef*%
%ADD12RoundRect,0.200000X-0.275000X0.200000X-0.275000X-0.200000X0.275000X-0.200000X0.275000X0.200000X0*%
%TD*%
%TA.AperFunction,SMDPad,CuDef*%
%ADD13RoundRect,0.243750X-0.456250X0.243750X-0.456250X-0.243750X0.456250X-0.243750X0.456250X0.243750X0*%
%TD*%
%TA.AperFunction,SMDPad,CuDef*%
%ADD14RoundRect,0.250000X0.250000X0.475000X-0.250000X0.475000X-0.250000X-0.475000X0.250000X-0.475000X0*%
%TD*%
%TA.AperFunction,SMDPad,CuDef*%
%ADD15RoundRect,0.250000X0.450000X-0.262500X0.450000X0.262500X-0.450000X0.262500X-0.450000X-0.262500X0*%
%TD*%
%TA.AperFunction,SMDPad,CuDef*%
%ADD16R,1.000000X1.100000*%
%TD*%
%TA.AperFunction,SMDPad,CuDef*%
%ADD17R,1.000000X3.000000*%
%TD*%
%TA.AperFunction,SMDPad,CuDef*%
%ADD18R,1.230000X0.400000*%
%TD*%
%TA.AperFunction,SMDPad,CuDef*%
%ADD19RoundRect,0.243750X0.456250X-0.243750X0.456250X0.243750X-0.456250X0.243750X-0.456250X-0.243750X0*%
%TD*%
%TA.AperFunction,ViaPad*%
%ADD20C,0.600000*%
%TD*%
%TA.AperFunction,Conductor*%
%ADD21C,0.200000*%
%TD*%
G04 APERTURE END LIST*
D10*
%TO.P,J3,4,Pin_4*%
%TO.N,GND*%
X126238000Y-85344000D03*
%TO.P,J3,3,Pin_3*%
%TO.N,RXD*%
X126238000Y-87884000D03*
%TO.P,J3,2,Pin_2*%
%TO.N,TXD*%
X126238000Y-90424000D03*
D11*
%TO.P,J3,1,Pin_1*%
%TO.N,+5V*%
X126238000Y-92964000D03*
%TD*%
D12*
%TO.P,RE,1*%
%TO.N,Net-(D4-K)*%
X147320000Y-76962000D03*
%TO.P,RE,2*%
%TO.N,GND*%
X147320000Y-78612000D03*
%TD*%
D13*
%TO.P,DE,1,K*%
%TO.N,Net-(D4-K)*%
X144545000Y-76609500D03*
%TO.P,DE,2,A*%
%TO.N,+4.2V*%
X144545000Y-78484500D03*
%TD*%
D14*
%TO.P,C6,1*%
%TO.N,+4.2V*%
X151384000Y-80264000D03*
%TO.P,C6,2*%
%TO.N,GND*%
X149484000Y-80264000D03*
%TD*%
%TO.P,C5,1*%
%TO.N,Net-(C5-Pad1)*%
X151384000Y-77254000D03*
%TO.P,C5,2*%
%TO.N,GND*%
X149484000Y-77254000D03*
%TD*%
D12*
%TO.P,R6,1*%
%TO.N,Net-(Q3-E)*%
X141986000Y-76708000D03*
%TO.P,R6,2*%
%TO.N,GND*%
X141986000Y-78358000D03*
%TD*%
%TO.P,R5,1*%
%TO.N,GND*%
X139476000Y-76708000D03*
%TO.P,R5,2*%
%TO.N,Net-(Q1-B)*%
X139476000Y-78358000D03*
%TD*%
D15*
%TO.P,R4,1*%
%TO.N,NETLIGHT*%
X132903000Y-96298000D03*
%TO.P,R4,2*%
%TO.N,Net-(Q1-B)*%
X132903000Y-94473000D03*
%TD*%
D12*
%TO.P,R2,1*%
%TO.N,+4.2V*%
X136966000Y-76708000D03*
%TO.P,R2,2*%
%TO.N,Net-(D2-A)*%
X136966000Y-78358000D03*
%TD*%
%TO.P,R1,1*%
%TO.N,+4.2V*%
X134456000Y-76708000D03*
%TO.P,R1,2*%
%TO.N,Net-(D1-A)*%
X134456000Y-78358000D03*
%TD*%
D16*
%TO.P,J2,C1,VCC*%
%TO.N,Net-(J2-VCC)*%
X136360000Y-92100000D03*
%TO.P,J2,C2,RST*%
%TO.N,Net-(J2-RST)*%
X138900000Y-92100000D03*
%TO.P,J2,C3,CLK*%
%TO.N,Net-(J2-CLK)*%
X141440000Y-92100000D03*
D17*
%TO.P,J2,C4*%
%TO.N,N/C*%
X133600000Y-86200000D03*
D16*
%TO.P,J2,C5,GND*%
%TO.N,GND*%
X136360000Y-80300000D03*
%TO.P,J2,C6,VPP*%
%TO.N,unconnected-(J2-VPP-PadC6)*%
X138900000Y-80300000D03*
%TO.P,J2,C7,I/O*%
%TO.N,Net-(J2-I{slash}O)*%
X141440000Y-80300000D03*
D17*
%TO.P,J2,C8*%
%TO.N,N/C*%
X144200000Y-86200000D03*
%TD*%
D18*
%TO.P,D3,1*%
%TO.N,Net-(J2-CLK)*%
X142824000Y-95138000D03*
%TO.P,D3,4*%
%TO.N,Net-(J2-VCC)*%
X144704000Y-93838000D03*
%TO.P,D3,2*%
%TO.N,Net-(J2-I{slash}O)*%
X142824000Y-94488000D03*
%TO.P,D3,3*%
%TO.N,Net-(J2-RST)*%
X142824000Y-93838000D03*
%TO.P,D3,5*%
%TO.N,unconnected-(D3-Pad5)*%
X144704000Y-95138000D03*
%TD*%
D19*
%TO.P,D2,1,K*%
%TO.N,Net-(D2-K)*%
X135898000Y-96363000D03*
%TO.P,D2,2,A*%
%TO.N,Net-(D2-A)*%
X135898000Y-94488000D03*
%TD*%
%TO.P,D1,1,K*%
%TO.N,Net-(D1-K)*%
X138938000Y-96363000D03*
%TO.P,D1,2,A*%
%TO.N,Net-(D1-A)*%
X138938000Y-94488000D03*
%TD*%
D14*
%TO.P,C4,1*%
%TO.N,Net-(J2-VCC)*%
X151384000Y-94234000D03*
%TO.P,C4,2*%
%TO.N,GND*%
X149484000Y-94234000D03*
%TD*%
%TO.P,C3,1*%
%TO.N,Net-(C3-Pad1)*%
X151384000Y-91224000D03*
%TO.P,C3,2*%
%TO.N,GND*%
X149484000Y-91224000D03*
%TD*%
%TO.P,C2,1*%
%TO.N,GND*%
X151384000Y-88214000D03*
%TO.P,C2,2*%
%TO.N,Net-(U1-SIM_DATA)*%
X149484000Y-88214000D03*
%TD*%
%TO.P,C1,1*%
%TO.N,Net-(U1-GSM_ANT)*%
X151384000Y-85204000D03*
%TO.P,C1,2*%
%TO.N,GND*%
X149484000Y-85204000D03*
%TD*%
D20*
%TO.N,RXD*%
X132308100Y-90736300D03*
%TO.N,TXD*%
X133215400Y-91435600D03*
X127458600Y-86618800D03*
%TO.N,Net-(C5-Pad1)*%
X148432800Y-77646500D03*
%TO.N,Net-(U1-SIM_RST)*%
X127469200Y-88653000D03*
X133091600Y-92662700D03*
%TO.N,NETLIGHT*%
X135852900Y-78714500D03*
%TO.N,+4.2V*%
X130775900Y-76830600D03*
X140592500Y-78533700D03*
%TO.N,Net-(Q3-C)*%
X147790300Y-93449200D03*
X142447800Y-80806500D03*
%TO.N,Net-(Q3-E)*%
X148001800Y-95177600D03*
%TO.N,Net-(Q3-B)*%
X146382500Y-94220800D03*
X144289700Y-90520800D03*
X132253700Y-89471700D03*
X128483000Y-85640300D03*
%TO.N,STATUS*%
X148344200Y-87923200D03*
X143186900Y-79782800D03*
%TO.N,Net-(Q1-B)*%
X148467500Y-85742400D03*
X144442900Y-81443800D03*
X140061700Y-81443800D03*
%TO.N,Net-(J2-RST)*%
X137141300Y-89934000D03*
X133289600Y-89162900D03*
X129306200Y-85891700D03*
%TO.N,Net-(J2-I{slash}O)*%
X131118600Y-94116100D03*
%TO.N,Net-(J2-CLK)*%
X129805300Y-89656400D03*
X132352500Y-92060800D03*
X140030100Y-92142100D03*
%TO.N,Net-(D2-A)*%
X137609600Y-83640400D03*
X135511800Y-81901900D03*
%TO.N,Net-(D2-K)*%
X151657100Y-92865800D03*
%TO.N,Net-(D1-A)*%
X134344100Y-83062200D03*
X136688500Y-85437300D03*
%TO.N,Net-(D1-K)*%
X140162100Y-96736900D03*
%TO.N,Net-(J2-VCC)*%
X139900000Y-93591000D03*
%TO.N,Net-(C3-Pad1)*%
X150494900Y-84096000D03*
X144342000Y-83049600D03*
%TO.N,Net-(U1-SIM_DATA)*%
X134719300Y-93673300D03*
X135360000Y-89494500D03*
X144522100Y-88384400D03*
%TO.N,GND*%
X148307700Y-82823400D03*
X149384100Y-81823100D03*
%TO.N,Net-(U1-GSM_ANT)*%
X149865500Y-82865300D03*
%TD*%
D21*
%TO.N,RXD*%
X132098900Y-90736300D02*
X132308100Y-90736300D01*
X129246600Y-87884000D02*
X132098900Y-90736300D01*
X126238000Y-87884000D02*
X129246600Y-87884000D01*
%TO.N,TXD*%
X133215400Y-90748900D02*
X133215400Y-91435600D01*
X132540100Y-90073600D02*
X133215400Y-90748900D01*
X132004500Y-90073600D02*
X132540100Y-90073600D01*
X128549700Y-86618800D02*
X132004500Y-90073600D01*
X127458600Y-86618800D02*
X128549700Y-86618800D01*
%TO.N,Net-(D4-K)*%
X146967500Y-76609500D02*
X147320000Y-76962000D01*
X144545000Y-76609500D02*
X146967500Y-76609500D01*
%TO.N,Net-(C5-Pad1)*%
X148432800Y-76740300D02*
X148432800Y-77646500D01*
X148947000Y-76226100D02*
X148432800Y-76740300D01*
X150356100Y-76226100D02*
X148947000Y-76226100D01*
X151384000Y-77254000D02*
X150356100Y-76226100D01*
%TO.N,Net-(U1-SIM_RST)*%
X131478900Y-92662700D02*
X127469200Y-88653000D01*
X133091600Y-92662700D02*
X131478900Y-92662700D01*
%TO.N,NETLIGHT*%
X135852900Y-78496000D02*
X135852900Y-78714500D01*
X135012200Y-77655300D02*
X135852900Y-78496000D01*
X132171500Y-77655300D02*
X135012200Y-77655300D01*
X125006800Y-84820000D02*
X132171500Y-77655300D01*
X125006800Y-88366000D02*
X125006800Y-84820000D01*
X125794800Y-89154000D02*
X125006800Y-88366000D01*
X126776600Y-89154000D02*
X125794800Y-89154000D01*
X129235100Y-91612500D02*
X126776600Y-89154000D01*
X129235100Y-93132000D02*
X129235100Y-91612500D01*
X132401100Y-96298000D02*
X129235100Y-93132000D01*
X132903000Y-96298000D02*
X132401100Y-96298000D01*
%TO.N,+4.2V*%
X136966000Y-76708000D02*
X134456000Y-76708000D01*
X130898500Y-76708000D02*
X130775900Y-76830600D01*
X134456000Y-76708000D02*
X130898500Y-76708000D01*
X145155300Y-77874200D02*
X144716800Y-78312700D01*
X147795800Y-77874200D02*
X145155300Y-77874200D01*
X148805500Y-78883900D02*
X147795800Y-77874200D01*
X150003900Y-78883900D02*
X148805500Y-78883900D01*
X151384000Y-80264000D02*
X150003900Y-78883900D01*
X144716800Y-78312700D02*
X144545000Y-78484500D01*
X141210700Y-76005300D02*
X140592500Y-76623500D01*
X142492100Y-76005300D02*
X141210700Y-76005300D01*
X143072700Y-76585900D02*
X142492100Y-76005300D01*
X143072700Y-76668600D02*
X143072700Y-76585900D01*
X144716800Y-78312700D02*
X143072700Y-76668600D01*
X139974300Y-76005300D02*
X140592500Y-76623500D01*
X137668700Y-76005300D02*
X139974300Y-76005300D01*
X136966000Y-76708000D02*
X137668700Y-76005300D01*
X140592500Y-76623500D02*
X140592500Y-78533700D01*
%TO.N,Net-(Q3-C)*%
X147790300Y-93072000D02*
X147790300Y-93449200D01*
X142447800Y-87729500D02*
X147790300Y-93072000D01*
X142447800Y-80806500D02*
X142447800Y-87729500D01*
%TO.N,Net-(Q3-E)*%
X141203000Y-77491000D02*
X141986000Y-76708000D01*
X141203000Y-78799300D02*
X141203000Y-77491000D01*
X141624300Y-79220600D02*
X141203000Y-78799300D01*
X141877200Y-79220600D02*
X141624300Y-79220600D01*
X142585000Y-79928400D02*
X141877200Y-79220600D01*
X142585000Y-80032000D02*
X142585000Y-79928400D01*
X143069900Y-80516900D02*
X142585000Y-80032000D01*
X143069900Y-87783300D02*
X143069900Y-80516900D01*
X148434100Y-93147500D02*
X143069900Y-87783300D01*
X148434100Y-94745300D02*
X148434100Y-93147500D01*
X148001800Y-95177600D02*
X148434100Y-94745300D01*
%TO.N,Net-(Q3-B)*%
X146382500Y-92613600D02*
X144289700Y-90520800D01*
X146382500Y-94220800D02*
X146382500Y-92613600D01*
X128483000Y-85921900D02*
X128483000Y-85640300D01*
X132032800Y-89471700D02*
X128483000Y-85921900D01*
X132253700Y-89471700D02*
X132032800Y-89471700D01*
%TO.N,STATUS*%
X148344200Y-87873000D02*
X148344200Y-87923200D01*
X144637600Y-84166400D02*
X148344200Y-87873000D01*
X144513200Y-84166400D02*
X144637600Y-84166400D01*
X143514700Y-83167900D02*
X144513200Y-84166400D01*
X143514700Y-80110600D02*
X143514700Y-83167900D01*
X143186900Y-79782800D02*
X143514700Y-80110600D01*
%TO.N,Net-(Q1-B)*%
X139729900Y-78611900D02*
X139476000Y-78358000D01*
X139729900Y-81398300D02*
X139729900Y-78611900D01*
X144442900Y-81717800D02*
X144442900Y-81443800D01*
X148467500Y-85742400D02*
X144442900Y-81717800D01*
X140016200Y-81398300D02*
X140061700Y-81443800D01*
X139729900Y-81398300D02*
X140016200Y-81398300D01*
X138382600Y-81398300D02*
X139729900Y-81398300D01*
X134567100Y-85213800D02*
X138382600Y-81398300D01*
X134567100Y-88225500D02*
X134567100Y-85213800D01*
X133913100Y-88879500D02*
X134567100Y-88225500D01*
X133913100Y-93028000D02*
X133913100Y-88879500D01*
X132903000Y-94038100D02*
X133913100Y-93028000D01*
X132903000Y-94473000D02*
X132903000Y-94038100D01*
%TO.N,Net-(J2-RST)*%
X130018400Y-85891700D02*
X133289600Y-89162900D01*
X129306200Y-85891700D02*
X130018400Y-85891700D01*
X138455400Y-91248100D02*
X137141300Y-89934000D01*
X138900000Y-91248100D02*
X138455400Y-91248100D01*
X138900000Y-92100000D02*
X138900000Y-91248100D01*
X142106800Y-91248100D02*
X138900000Y-91248100D01*
X142286100Y-91427400D02*
X142106800Y-91248100D01*
X142286100Y-93082600D02*
X142286100Y-91427400D01*
X141907100Y-93461600D02*
X142286100Y-93082600D01*
X141907100Y-93838000D02*
X141907100Y-93461600D01*
X142824000Y-93838000D02*
X141907100Y-93838000D01*
%TO.N,Net-(J2-I{slash}O)*%
X141440000Y-80300000D02*
X141440000Y-81151900D01*
X142824000Y-94488000D02*
X143740900Y-94488000D01*
X141226100Y-81365800D02*
X141226100Y-83023800D01*
X141440000Y-81151900D02*
X141226100Y-81365800D01*
X131118600Y-94206500D02*
X131118600Y-94116100D01*
X132235100Y-95323000D02*
X131118600Y-94206500D01*
X133567800Y-95323000D02*
X132235100Y-95323000D01*
X134117400Y-94773400D02*
X133567800Y-95323000D01*
X134117400Y-93392000D02*
X134117400Y-94773400D01*
X134316600Y-93192800D02*
X134117400Y-93392000D01*
X134316600Y-89686800D02*
X134316600Y-93192800D01*
X135121900Y-88881500D02*
X134316600Y-89686800D01*
X135121900Y-85268800D02*
X135121900Y-88881500D01*
X137366900Y-83023800D02*
X135121900Y-85268800D01*
X141226100Y-83023800D02*
X137366900Y-83023800D01*
X141226100Y-89233000D02*
X141226100Y-83023800D01*
X143740900Y-91747800D02*
X141226100Y-89233000D01*
X143740900Y-94488000D02*
X143740900Y-91747800D01*
%TO.N,Net-(J2-CLK)*%
X142824000Y-95138000D02*
X141907100Y-95138000D01*
X141440000Y-92851000D02*
X141440000Y-92950400D01*
X141440000Y-92950400D02*
X141440000Y-92951900D01*
X141440000Y-92100000D02*
X141440000Y-92342900D01*
X141440000Y-92342900D02*
X141440000Y-92851000D01*
X141440000Y-94670900D02*
X141440000Y-92951900D01*
X141907100Y-95138000D02*
X141440000Y-94670900D01*
X140230900Y-92342900D02*
X140030100Y-92142100D01*
X141440000Y-92342900D02*
X140230900Y-92342900D01*
X132209700Y-92060800D02*
X132352500Y-92060800D01*
X129805300Y-89656400D02*
X132209700Y-92060800D01*
%TO.N,Net-(D2-A)*%
X136966000Y-78519400D02*
X136966000Y-78358000D01*
X136133700Y-79351700D02*
X136966000Y-78519400D01*
X135740600Y-79351700D02*
X136133700Y-79351700D01*
X135511800Y-79580500D02*
X135740600Y-79351700D01*
X135511800Y-81901900D02*
X135511800Y-79580500D01*
X135970300Y-85279700D02*
X137609600Y-83640400D01*
X135970300Y-90352200D02*
X135970300Y-85279700D01*
X135121900Y-91200600D02*
X135970300Y-90352200D01*
X135121900Y-93192600D02*
X135121900Y-91200600D01*
X135898000Y-93968700D02*
X135121900Y-93192600D01*
X135898000Y-94488000D02*
X135898000Y-93968700D01*
%TO.N,Net-(D2-K)*%
X152191100Y-93399800D02*
X151657100Y-92865800D01*
X152191100Y-94956800D02*
X152191100Y-93399800D01*
X150945800Y-96202100D02*
X152191100Y-94956800D01*
X141217100Y-96202100D02*
X150945800Y-96202100D01*
X140536800Y-95521800D02*
X141217100Y-96202100D01*
X136739200Y-95521800D02*
X140536800Y-95521800D01*
X135898000Y-96363000D02*
X136739200Y-95521800D01*
%TO.N,Net-(D1-A)*%
X134456000Y-82950300D02*
X134344100Y-83062200D01*
X134456000Y-78358000D02*
X134456000Y-82950300D01*
X136530400Y-85595400D02*
X136688500Y-85437300D01*
X136530400Y-90452600D02*
X136530400Y-85595400D01*
X135558100Y-91424900D02*
X136530400Y-90452600D01*
X135558100Y-92855100D02*
X135558100Y-91424900D01*
X135837000Y-93134000D02*
X135558100Y-92855100D01*
X137584000Y-93134000D02*
X135837000Y-93134000D01*
X138938000Y-94488000D02*
X137584000Y-93134000D01*
%TO.N,Net-(D1-K)*%
X139311900Y-96736900D02*
X138938000Y-96363000D01*
X140162100Y-96736900D02*
X139311900Y-96736900D01*
%TO.N,Net-(J2-VCC)*%
X136360000Y-92100000D02*
X137161900Y-92100000D01*
X144704000Y-93838000D02*
X145620900Y-93838000D01*
X138652900Y-93591000D02*
X139900000Y-93591000D01*
X137161900Y-92100000D02*
X138652900Y-93591000D01*
X149838400Y-95779600D02*
X151384000Y-94234000D01*
X146941800Y-95779600D02*
X149838400Y-95779600D01*
X146133300Y-94971100D02*
X146941800Y-95779600D01*
X145620900Y-94458700D02*
X146133300Y-94971100D01*
X145620900Y-93838000D02*
X145620900Y-94458700D01*
X139900000Y-93714600D02*
X139900000Y-93591000D01*
X141854700Y-95669300D02*
X139900000Y-93714600D01*
X145435100Y-95669300D02*
X141854700Y-95669300D01*
X146133300Y-94971100D02*
X145435100Y-95669300D01*
%TO.N,Net-(C3-Pad1)*%
X150494900Y-90334900D02*
X150494900Y-86348100D01*
X151384000Y-91224000D02*
X150494900Y-90334900D01*
X150494900Y-86348100D02*
X150494900Y-84096000D01*
X147640500Y-86348100D02*
X144342000Y-83049600D01*
X150494900Y-86348100D02*
X147640500Y-86348100D01*
%TO.N,Net-(U1-SIM_DATA)*%
X149153800Y-88544200D02*
X149484000Y-88214000D01*
X144681900Y-88544200D02*
X149153800Y-88544200D01*
X144522100Y-88384400D02*
X144681900Y-88544200D01*
X134719300Y-90135200D02*
X134719300Y-93673300D01*
X135360000Y-89494500D02*
X134719300Y-90135200D01*
%TO.N,GND*%
X149484000Y-92261300D02*
X149485500Y-92259800D01*
X149484000Y-94234000D02*
X149484000Y-92261300D01*
X149485500Y-91225500D02*
X149484000Y-91224000D01*
X149485500Y-92259800D02*
X149485500Y-91225500D01*
X148972000Y-80264000D02*
X147320000Y-78612000D01*
X149484000Y-80264000D02*
X148972000Y-80264000D01*
X151004800Y-78774800D02*
X149484000Y-77254000D01*
X151401600Y-78774800D02*
X151004800Y-78774800D01*
X152202300Y-79575500D02*
X151401600Y-78774800D01*
X152202300Y-81031700D02*
X152202300Y-79575500D01*
X150875300Y-82358700D02*
X152202300Y-81031700D01*
X152216800Y-87381200D02*
X151384000Y-88214000D01*
X152216800Y-83700200D02*
X152216800Y-87381200D01*
X150875300Y-82358700D02*
X152216800Y-83700200D01*
X151899800Y-92259800D02*
X149485500Y-92259800D01*
X152222500Y-91937100D02*
X151899800Y-92259800D01*
X152222500Y-89052500D02*
X152222500Y-91937100D01*
X151384000Y-88214000D02*
X152222500Y-89052500D01*
X142658800Y-78358000D02*
X141986000Y-78358000D01*
X143576400Y-79275600D02*
X142658800Y-78358000D01*
X146656400Y-79275600D02*
X143576400Y-79275600D01*
X147320000Y-78612000D02*
X146656400Y-79275600D01*
X150780000Y-82263400D02*
X150875300Y-82358700D01*
X149484000Y-82263400D02*
X150780000Y-82263400D01*
X149223900Y-82823400D02*
X148307700Y-82823400D01*
X149223900Y-82523500D02*
X149223900Y-82823400D01*
X149484000Y-82263400D02*
X149223900Y-82523500D01*
X149223900Y-84943900D02*
X149484000Y-85204000D01*
X149223900Y-82823400D02*
X149223900Y-84943900D01*
X149484000Y-80264000D02*
X149484000Y-81823100D01*
X149484000Y-81823100D02*
X149484000Y-82263400D01*
X149384100Y-81823100D02*
X149484000Y-81823100D01*
X138527200Y-77656800D02*
X139476000Y-76708000D01*
X138527200Y-78934700D02*
X138527200Y-77656800D01*
X137161900Y-80300000D02*
X138527200Y-78934700D01*
X136360000Y-80300000D02*
X137161900Y-80300000D01*
X136360000Y-81920900D02*
X136360000Y-80300000D01*
X133911500Y-84369400D02*
X136360000Y-81920900D01*
X127212600Y-84369400D02*
X133911500Y-84369400D01*
X126238000Y-85344000D02*
X127212600Y-84369400D01*
%TO.N,Net-(U1-GSM_ANT)*%
X150122400Y-82865300D02*
X149865500Y-82865300D01*
X151384000Y-84126900D02*
X150122400Y-82865300D01*
X151384000Y-85204000D02*
X151384000Y-84126900D01*
%TD*%
%TA.AperFunction,Conductor*%
%TO.N,GND*%
G36*
X148644008Y-89164385D02*
G01*
X148664650Y-89181018D01*
X148765344Y-89281712D01*
X148914666Y-89373814D01*
X149081203Y-89428999D01*
X149183991Y-89439500D01*
X149770400Y-89439499D01*
X149837439Y-89459183D01*
X149883194Y-89511987D01*
X149894400Y-89563499D01*
X149894400Y-89875000D01*
X149874715Y-89942039D01*
X149821911Y-89987794D01*
X149770400Y-89999000D01*
X149734000Y-89999000D01*
X149734000Y-92448999D01*
X149783972Y-92448999D01*
X149783986Y-92448998D01*
X149886697Y-92438505D01*
X150053119Y-92383358D01*
X150053124Y-92383356D01*
X150202345Y-92291315D01*
X150326318Y-92167342D01*
X150328165Y-92164348D01*
X150329969Y-92162724D01*
X150330798Y-92161677D01*
X150330976Y-92161818D01*
X150380110Y-92117621D01*
X150449073Y-92106396D01*
X150513156Y-92134236D01*
X150539243Y-92164341D01*
X150541288Y-92167656D01*
X150665344Y-92291712D01*
X150814666Y-92383814D01*
X150841047Y-92392555D01*
X150898491Y-92432327D01*
X150925315Y-92496842D01*
X150919085Y-92551215D01*
X150871732Y-92686542D01*
X150871730Y-92686550D01*
X150851535Y-92865796D01*
X150851535Y-92865803D01*
X150862288Y-92961241D01*
X150850233Y-93030063D01*
X150804165Y-93080663D01*
X150665342Y-93166289D01*
X150541288Y-93290343D01*
X150541283Y-93290349D01*
X150539241Y-93293661D01*
X150537247Y-93295453D01*
X150536807Y-93296011D01*
X150536711Y-93295935D01*
X150487291Y-93340383D01*
X150418328Y-93351602D01*
X150354247Y-93323755D01*
X150328168Y-93293656D01*
X150326319Y-93290659D01*
X150326316Y-93290655D01*
X150202345Y-93166684D01*
X150053124Y-93074643D01*
X150053119Y-93074641D01*
X149886697Y-93019494D01*
X149886690Y-93019493D01*
X149783986Y-93009000D01*
X149734000Y-93009000D01*
X149734000Y-94360000D01*
X149714315Y-94427039D01*
X149661511Y-94472794D01*
X149610000Y-94484000D01*
X149358000Y-94484000D01*
X149290961Y-94464315D01*
X149245206Y-94411511D01*
X149234000Y-94360000D01*
X149234000Y-93009000D01*
X149233999Y-93008999D01*
X149184029Y-93009000D01*
X149184009Y-93009001D01*
X149124929Y-93015037D01*
X149056236Y-93002267D01*
X149005352Y-92954386D01*
X148997770Y-92939138D01*
X148958636Y-92844659D01*
X148933299Y-92811639D01*
X148862382Y-92719218D01*
X148834105Y-92697520D01*
X148828004Y-92692169D01*
X148632433Y-92496598D01*
X148598948Y-92435275D01*
X148603932Y-92365583D01*
X148645804Y-92309650D01*
X148711268Y-92285233D01*
X148779541Y-92300085D01*
X148785211Y-92303378D01*
X148914875Y-92383356D01*
X148914880Y-92383358D01*
X149081302Y-92438505D01*
X149081309Y-92438506D01*
X149184019Y-92448999D01*
X149233999Y-92448998D01*
X149234000Y-92448998D01*
X149234000Y-91474000D01*
X148484001Y-91474000D01*
X148484001Y-91748986D01*
X148494494Y-91851697D01*
X148549641Y-92018119D01*
X148549643Y-92018124D01*
X148629621Y-92147788D01*
X148648061Y-92215181D01*
X148627138Y-92281844D01*
X148573496Y-92326614D01*
X148504166Y-92335275D01*
X148441158Y-92305079D01*
X148436401Y-92300566D01*
X147109835Y-90974000D01*
X148484000Y-90974000D01*
X149234000Y-90974000D01*
X149234000Y-89999000D01*
X149233999Y-89998999D01*
X149184029Y-89999000D01*
X149184011Y-89999001D01*
X149081302Y-90009494D01*
X148914880Y-90064641D01*
X148914875Y-90064643D01*
X148765654Y-90156684D01*
X148641684Y-90280654D01*
X148549643Y-90429875D01*
X148549641Y-90429880D01*
X148494494Y-90596302D01*
X148494493Y-90596309D01*
X148484000Y-90699013D01*
X148484000Y-90974000D01*
X147109835Y-90974000D01*
X145492216Y-89356381D01*
X145458731Y-89295058D01*
X145463715Y-89225366D01*
X145505587Y-89169433D01*
X145571051Y-89145016D01*
X145579897Y-89144700D01*
X148576969Y-89144700D01*
X148644008Y-89164385D01*
G37*
%TD.AperFunction*%
%TA.AperFunction,Conductor*%
G36*
X152326834Y-86150048D02*
G01*
X152382767Y-86191920D01*
X152407184Y-86257384D01*
X152407500Y-86266230D01*
X152407500Y-87152477D01*
X152387815Y-87219516D01*
X152335011Y-87265271D01*
X152265853Y-87275215D01*
X152202297Y-87246190D01*
X152195819Y-87240158D01*
X152102345Y-87146684D01*
X151953124Y-87054643D01*
X151953119Y-87054641D01*
X151786697Y-86999494D01*
X151786690Y-86999493D01*
X151683986Y-86989000D01*
X151634000Y-86989000D01*
X151634000Y-89438999D01*
X151683972Y-89438999D01*
X151683986Y-89438998D01*
X151786697Y-89428505D01*
X151953119Y-89373358D01*
X151953124Y-89373356D01*
X152102345Y-89281315D01*
X152195819Y-89187842D01*
X152257142Y-89154357D01*
X152326834Y-89159341D01*
X152382767Y-89201213D01*
X152407184Y-89266677D01*
X152407500Y-89275523D01*
X152407500Y-90161770D01*
X152387815Y-90228809D01*
X152335011Y-90274564D01*
X152265853Y-90284508D01*
X152202297Y-90255483D01*
X152195819Y-90249451D01*
X152102657Y-90156289D01*
X152102656Y-90156288D01*
X151953334Y-90064186D01*
X151786797Y-90009001D01*
X151786795Y-90009000D01*
X151684016Y-89998500D01*
X151684009Y-89998500D01*
X151219400Y-89998500D01*
X151152361Y-89978815D01*
X151106606Y-89926011D01*
X151095400Y-89874500D01*
X151095400Y-89528961D01*
X151115085Y-89461922D01*
X151131719Y-89441280D01*
X151134000Y-89438999D01*
X151134000Y-86989000D01*
X151131719Y-86986719D01*
X151098234Y-86925396D01*
X151095400Y-86899038D01*
X151095400Y-86553499D01*
X151115085Y-86486460D01*
X151167889Y-86440705D01*
X151219400Y-86429499D01*
X151684002Y-86429499D01*
X151684008Y-86429499D01*
X151786797Y-86418999D01*
X151953334Y-86363814D01*
X152102656Y-86271712D01*
X152195819Y-86178549D01*
X152257142Y-86145064D01*
X152326834Y-86150048D01*
G37*
%TD.AperFunction*%
%TA.AperFunction,Conductor*%
G36*
X139669039Y-76625485D02*
G01*
X139714794Y-76678289D01*
X139726000Y-76729800D01*
X139726000Y-76834000D01*
X139706315Y-76901039D01*
X139653511Y-76946794D01*
X139602000Y-76958000D01*
X138501001Y-76958000D01*
X138501001Y-76964582D01*
X138507408Y-77035102D01*
X138507409Y-77035107D01*
X138557981Y-77197396D01*
X138645927Y-77342877D01*
X138748015Y-77444965D01*
X138781500Y-77506288D01*
X138776516Y-77575980D01*
X138748015Y-77620327D01*
X138645531Y-77722810D01*
X138645530Y-77722811D01*
X138557522Y-77868393D01*
X138506913Y-78030807D01*
X138501782Y-78087275D01*
X138500500Y-78101384D01*
X138500500Y-78614616D01*
X138502403Y-78635556D01*
X138506913Y-78685192D01*
X138506913Y-78685194D01*
X138506914Y-78685196D01*
X138557522Y-78847606D01*
X138638144Y-78980971D01*
X138645530Y-78993188D01*
X138690161Y-79037819D01*
X138723646Y-79099142D01*
X138718662Y-79168834D01*
X138676790Y-79224767D01*
X138611326Y-79249184D01*
X138602480Y-79249500D01*
X138352130Y-79249500D01*
X138352123Y-79249501D01*
X138292516Y-79255908D01*
X138157671Y-79306202D01*
X138157664Y-79306206D01*
X138042455Y-79392452D01*
X138042452Y-79392455D01*
X137956206Y-79507664D01*
X137956202Y-79507671D01*
X137905908Y-79642517D01*
X137899501Y-79702116D01*
X137899500Y-79702135D01*
X137899500Y-80897870D01*
X137899501Y-80897879D01*
X137906194Y-80960145D01*
X137893786Y-81028905D01*
X137870585Y-81061078D01*
X134608819Y-84322844D01*
X134547496Y-84356329D01*
X134477804Y-84351345D01*
X134446827Y-84334430D01*
X134434620Y-84325292D01*
X134353424Y-84264508D01*
X134342330Y-84256203D01*
X134342328Y-84256202D01*
X134207482Y-84205908D01*
X134207483Y-84205908D01*
X134147883Y-84199501D01*
X134147881Y-84199500D01*
X134147873Y-84199500D01*
X134147864Y-84199500D01*
X133052129Y-84199500D01*
X133052123Y-84199501D01*
X132992516Y-84205908D01*
X132857671Y-84256202D01*
X132857664Y-84256206D01*
X132742455Y-84342452D01*
X132742452Y-84342455D01*
X132656206Y-84457664D01*
X132656202Y-84457671D01*
X132605908Y-84592517D01*
X132599501Y-84652116D01*
X132599500Y-84652135D01*
X132599500Y-87324203D01*
X132579815Y-87391242D01*
X132527011Y-87436997D01*
X132457853Y-87446941D01*
X132394297Y-87417916D01*
X132387819Y-87411884D01*
X131459435Y-86483500D01*
X130473720Y-85497785D01*
X130468380Y-85491695D01*
X130446682Y-85463418D01*
X130321241Y-85367164D01*
X130265318Y-85344000D01*
X130175162Y-85306656D01*
X130175160Y-85306655D01*
X130057761Y-85291200D01*
X130018400Y-85286018D01*
X129983070Y-85290669D01*
X129974972Y-85291200D01*
X129888612Y-85291200D01*
X129821573Y-85271515D01*
X129811297Y-85264145D01*
X129808463Y-85261885D01*
X129808462Y-85261884D01*
X129751696Y-85226215D01*
X129655723Y-85165911D01*
X129485454Y-85106331D01*
X129485449Y-85106330D01*
X129306204Y-85086135D01*
X129306196Y-85086135D01*
X129145089Y-85104286D01*
X129076267Y-85092231D01*
X129043525Y-85068747D01*
X128985262Y-85010484D01*
X128832523Y-84914511D01*
X128662254Y-84854931D01*
X128662249Y-84854930D01*
X128483004Y-84834735D01*
X128482996Y-84834735D01*
X128303750Y-84854930D01*
X128303745Y-84854931D01*
X128133476Y-84914511D01*
X127980737Y-85010484D01*
X127853184Y-85138037D01*
X127853178Y-85138044D01*
X127848228Y-85145923D01*
X127795892Y-85192212D01*
X127726838Y-85202857D01*
X127662991Y-85174478D01*
X127624622Y-85116087D01*
X127623032Y-85110386D01*
X127566682Y-84887864D01*
X127473483Y-84675390D01*
X127389186Y-84546364D01*
X126800772Y-85134778D01*
X126762099Y-85041412D01*
X126665925Y-84916075D01*
X126540588Y-84819901D01*
X126447219Y-84781226D01*
X127036799Y-84191647D01*
X127006349Y-84167949D01*
X126829298Y-84072133D01*
X126779708Y-84022913D01*
X126764600Y-83954697D01*
X126788770Y-83889141D01*
X126800621Y-83875412D01*
X132383915Y-78292119D01*
X132445239Y-78258634D01*
X132471597Y-78255800D01*
X133356500Y-78255800D01*
X133423539Y-78275485D01*
X133469294Y-78328289D01*
X133480500Y-78379800D01*
X133480500Y-78614616D01*
X133482403Y-78635556D01*
X133486913Y-78685192D01*
X133486913Y-78685194D01*
X133486914Y-78685196D01*
X133537522Y-78847606D01*
X133618144Y-78980971D01*
X133625530Y-78993188D01*
X133745810Y-79113468D01*
X133745814Y-79113471D01*
X133745815Y-79113472D01*
X133764772Y-79124932D01*
X133795650Y-79143599D01*
X133842837Y-79195127D01*
X133855499Y-79249715D01*
X133855499Y-82367360D01*
X133835814Y-82434399D01*
X133819181Y-82455041D01*
X133714283Y-82559939D01*
X133618311Y-82712676D01*
X133558731Y-82882945D01*
X133558730Y-82882950D01*
X133538535Y-83062196D01*
X133538535Y-83062203D01*
X133558730Y-83241449D01*
X133558731Y-83241454D01*
X133618311Y-83411723D01*
X133670710Y-83495115D01*
X133714284Y-83564462D01*
X133841838Y-83692016D01*
X133994578Y-83787989D01*
X134097660Y-83824059D01*
X134164845Y-83847568D01*
X134164850Y-83847569D01*
X134344096Y-83867765D01*
X134344100Y-83867765D01*
X134344104Y-83867765D01*
X134523349Y-83847569D01*
X134523352Y-83847568D01*
X134523355Y-83847568D01*
X134693622Y-83787989D01*
X134846362Y-83692016D01*
X134973916Y-83564462D01*
X135069889Y-83411722D01*
X135129468Y-83241455D01*
X135149665Y-83062200D01*
X135147676Y-83044549D01*
X135129469Y-82882950D01*
X135129467Y-82882940D01*
X135108154Y-82822033D01*
X135104591Y-82752254D01*
X135139320Y-82691626D01*
X135201313Y-82659399D01*
X135266150Y-82664036D01*
X135332537Y-82687266D01*
X135332543Y-82687267D01*
X135332545Y-82687268D01*
X135332546Y-82687268D01*
X135332550Y-82687269D01*
X135511796Y-82707465D01*
X135511800Y-82707465D01*
X135511804Y-82707465D01*
X135691049Y-82687269D01*
X135691052Y-82687268D01*
X135691055Y-82687268D01*
X135861322Y-82627689D01*
X136014062Y-82531716D01*
X136141616Y-82404162D01*
X136237589Y-82251422D01*
X136297168Y-82081155D01*
X136297306Y-82079930D01*
X136317365Y-81901903D01*
X136317365Y-81901896D01*
X136297169Y-81722650D01*
X136297168Y-81722645D01*
X136262320Y-81623055D01*
X136237589Y-81552378D01*
X136141616Y-81399638D01*
X136141614Y-81399636D01*
X136141613Y-81399634D01*
X136139350Y-81396796D01*
X136138459Y-81394615D01*
X136137911Y-81393742D01*
X136138064Y-81393645D01*
X136112944Y-81332109D01*
X136112300Y-81319487D01*
X136112300Y-80550000D01*
X136610000Y-80550000D01*
X136610000Y-81350000D01*
X136907828Y-81350000D01*
X136907844Y-81349999D01*
X136967372Y-81343598D01*
X136967379Y-81343596D01*
X137102086Y-81293354D01*
X137102093Y-81293350D01*
X137217187Y-81207190D01*
X137217190Y-81207187D01*
X137303350Y-81092093D01*
X137303354Y-81092086D01*
X137353596Y-80957379D01*
X137353598Y-80957372D01*
X137359999Y-80897844D01*
X137360000Y-80897827D01*
X137360000Y-80550000D01*
X136610000Y-80550000D01*
X136112300Y-80550000D01*
X136112300Y-80174000D01*
X136131985Y-80106961D01*
X136184789Y-80061206D01*
X136236300Y-80050000D01*
X137360000Y-80050000D01*
X137360000Y-79702172D01*
X137359999Y-79702155D01*
X137353598Y-79642627D01*
X137353596Y-79642620D01*
X137303354Y-79507913D01*
X137303350Y-79507906D01*
X137261206Y-79451609D01*
X137236788Y-79386145D01*
X137251639Y-79317872D01*
X137301044Y-79268466D01*
X137349249Y-79253807D01*
X137368196Y-79252086D01*
X137530606Y-79201478D01*
X137676185Y-79113472D01*
X137796472Y-78993185D01*
X137884478Y-78847606D01*
X137935086Y-78685196D01*
X137941500Y-78614616D01*
X137941500Y-78101384D01*
X137935086Y-78030804D01*
X137884478Y-77868394D01*
X137796472Y-77722815D01*
X137796470Y-77722813D01*
X137796469Y-77722811D01*
X137694339Y-77620681D01*
X137660854Y-77559358D01*
X137665838Y-77489666D01*
X137694339Y-77445319D01*
X137796468Y-77343189D01*
X137796469Y-77343188D01*
X137796469Y-77343187D01*
X137796472Y-77343185D01*
X137884478Y-77197606D01*
X137935086Y-77035196D01*
X137941500Y-76964616D01*
X137941500Y-76729800D01*
X137961185Y-76662761D01*
X138013989Y-76617006D01*
X138065500Y-76605800D01*
X139602000Y-76605800D01*
X139669039Y-76625485D01*
G37*
%TD.AperFunction*%
%TA.AperFunction,Conductor*%
G36*
X147513039Y-78494385D02*
G01*
X147558794Y-78547189D01*
X147570000Y-78598700D01*
X147570000Y-79511999D01*
X147651581Y-79511999D01*
X147722102Y-79505591D01*
X147722107Y-79505590D01*
X147884396Y-79455018D01*
X148029875Y-79367073D01*
X148146975Y-79249973D01*
X148208298Y-79216488D01*
X148277990Y-79221472D01*
X148322338Y-79249973D01*
X148350169Y-79277804D01*
X148355520Y-79283905D01*
X148377218Y-79312182D01*
X148471262Y-79384344D01*
X148481832Y-79392455D01*
X148486394Y-79395955D01*
X148527597Y-79452382D01*
X148531752Y-79522128D01*
X148528614Y-79533334D01*
X148494495Y-79636298D01*
X148494493Y-79636309D01*
X148484000Y-79739013D01*
X148484000Y-80014000D01*
X149610000Y-80014000D01*
X149677039Y-80033685D01*
X149722794Y-80086489D01*
X149734000Y-80138000D01*
X149734000Y-81488999D01*
X149783972Y-81488999D01*
X149783986Y-81488998D01*
X149886697Y-81478505D01*
X150053119Y-81423358D01*
X150053124Y-81423356D01*
X150202345Y-81331315D01*
X150326318Y-81207342D01*
X150328165Y-81204348D01*
X150329969Y-81202724D01*
X150330798Y-81201677D01*
X150330976Y-81201818D01*
X150380110Y-81157621D01*
X150449073Y-81146396D01*
X150513156Y-81174236D01*
X150539243Y-81204341D01*
X150541288Y-81207656D01*
X150665344Y-81331712D01*
X150814666Y-81423814D01*
X150981203Y-81478999D01*
X151083991Y-81489500D01*
X151684008Y-81489499D01*
X151684016Y-81489498D01*
X151684019Y-81489498D01*
X151740302Y-81483748D01*
X151786797Y-81478999D01*
X151953334Y-81423814D01*
X152102656Y-81331712D01*
X152195819Y-81238549D01*
X152257142Y-81205064D01*
X152326834Y-81210048D01*
X152382767Y-81251920D01*
X152407184Y-81317384D01*
X152407500Y-81326230D01*
X152407500Y-84141770D01*
X152387815Y-84208809D01*
X152335011Y-84254564D01*
X152265853Y-84264508D01*
X152202297Y-84235483D01*
X152195819Y-84229451D01*
X152102655Y-84136287D01*
X152031192Y-84092208D01*
X151984468Y-84040260D01*
X151973351Y-84002855D01*
X151970211Y-83979000D01*
X151969044Y-83970138D01*
X151908536Y-83824059D01*
X151883535Y-83791477D01*
X151812282Y-83698618D01*
X151809898Y-83696789D01*
X151784007Y-83676922D01*
X151777904Y-83671569D01*
X150577728Y-82471393D01*
X150572374Y-82465288D01*
X150550684Y-82437019D01*
X150544940Y-82431276D01*
X150545288Y-82430927D01*
X150521688Y-82405008D01*
X150495316Y-82363038D01*
X150367762Y-82235484D01*
X150215023Y-82139511D01*
X150044754Y-82079931D01*
X150044749Y-82079930D01*
X149865504Y-82059735D01*
X149865496Y-82059735D01*
X149686250Y-82079930D01*
X149686245Y-82079931D01*
X149515976Y-82139511D01*
X149363237Y-82235484D01*
X149235684Y-82363037D01*
X149139711Y-82515776D01*
X149080131Y-82686045D01*
X149080130Y-82686050D01*
X149059935Y-82865296D01*
X149059935Y-82865303D01*
X149080130Y-83044549D01*
X149080131Y-83044554D01*
X149139711Y-83214823D01*
X149235684Y-83367562D01*
X149363238Y-83495116D01*
X149515978Y-83591089D01*
X149672897Y-83645997D01*
X149729673Y-83686719D01*
X149755421Y-83751671D01*
X149748985Y-83803993D01*
X149709532Y-83916742D01*
X149709530Y-83916750D01*
X149689335Y-84095996D01*
X149689335Y-84096003D01*
X149709530Y-84275246D01*
X149709532Y-84275256D01*
X149727041Y-84325292D01*
X149734000Y-84366247D01*
X149734000Y-85330000D01*
X149714315Y-85397039D01*
X149661511Y-85442794D01*
X149610000Y-85454000D01*
X149358000Y-85454000D01*
X149290961Y-85434315D01*
X149245206Y-85381511D01*
X149234000Y-85330000D01*
X149234000Y-83979000D01*
X149233999Y-83978999D01*
X149184029Y-83979000D01*
X149184011Y-83979001D01*
X149081302Y-83989494D01*
X148914880Y-84044641D01*
X148914875Y-84044643D01*
X148765654Y-84136684D01*
X148641684Y-84260654D01*
X148549643Y-84409875D01*
X148549641Y-84409880D01*
X148494494Y-84576302D01*
X148494493Y-84576309D01*
X148489141Y-84628691D01*
X148462743Y-84693382D01*
X148405562Y-84733532D01*
X148335751Y-84736394D01*
X148278102Y-84703767D01*
X145267366Y-81693031D01*
X145233881Y-81631708D01*
X145231827Y-81591466D01*
X145236232Y-81552376D01*
X145243372Y-81488999D01*
X145248465Y-81443802D01*
X145248465Y-81443796D01*
X145228269Y-81264550D01*
X145228268Y-81264545D01*
X145208199Y-81207190D01*
X145168689Y-81094278D01*
X145072716Y-80941538D01*
X144945162Y-80813984D01*
X144820700Y-80735779D01*
X144792423Y-80718011D01*
X144622154Y-80658431D01*
X144622149Y-80658430D01*
X144442904Y-80638235D01*
X144442896Y-80638235D01*
X144256725Y-80659211D01*
X144256485Y-80657083D01*
X144197046Y-80653437D01*
X144140691Y-80612134D01*
X144115612Y-80546921D01*
X144115200Y-80536822D01*
X144115200Y-80514000D01*
X148484001Y-80514000D01*
X148484001Y-80788986D01*
X148494494Y-80891697D01*
X148549641Y-81058119D01*
X148549643Y-81058124D01*
X148641684Y-81207345D01*
X148765654Y-81331315D01*
X148914875Y-81423356D01*
X148914880Y-81423358D01*
X149081302Y-81478505D01*
X149081309Y-81478506D01*
X149184019Y-81488999D01*
X149233999Y-81488998D01*
X149234000Y-81488998D01*
X149234000Y-80514000D01*
X148484001Y-80514000D01*
X144115200Y-80514000D01*
X144115200Y-80154028D01*
X144115731Y-80145926D01*
X144120382Y-80110599D01*
X144120382Y-80110598D01*
X144106623Y-80006091D01*
X144099744Y-79953838D01*
X144067600Y-79876236D01*
X144039238Y-79807763D01*
X144039235Y-79807758D01*
X144011519Y-79771638D01*
X144008697Y-79767960D01*
X143983851Y-79706358D01*
X143973038Y-79610380D01*
X143985094Y-79541560D01*
X144032444Y-79490181D01*
X144096259Y-79472500D01*
X145050843Y-79472500D01*
X145050848Y-79472500D01*
X145152775Y-79462087D01*
X145317925Y-79407362D01*
X145466003Y-79316026D01*
X145589026Y-79193003D01*
X145680362Y-79044925D01*
X145735087Y-78879775D01*
X145736903Y-78862000D01*
X146345001Y-78862000D01*
X146345001Y-78868582D01*
X146351408Y-78939102D01*
X146351409Y-78939107D01*
X146401981Y-79101396D01*
X146489927Y-79246877D01*
X146610122Y-79367072D01*
X146755604Y-79455019D01*
X146755603Y-79455019D01*
X146917894Y-79505590D01*
X146917892Y-79505590D01*
X146988418Y-79511999D01*
X147069999Y-79511998D01*
X147070000Y-79511998D01*
X147070000Y-78862000D01*
X146345001Y-78862000D01*
X145736903Y-78862000D01*
X145745500Y-78777848D01*
X145745500Y-78598700D01*
X145765185Y-78531661D01*
X145817989Y-78485906D01*
X145869500Y-78474700D01*
X147446000Y-78474700D01*
X147513039Y-78494385D01*
G37*
%TD.AperFunction*%
%TA.AperFunction,Conductor*%
G36*
X150513156Y-78164236D02*
G01*
X150539243Y-78194341D01*
X150541288Y-78197656D01*
X150665344Y-78321712D01*
X150814666Y-78413814D01*
X150981203Y-78468999D01*
X151083991Y-78479500D01*
X151684008Y-78479499D01*
X151684016Y-78479498D01*
X151684019Y-78479498D01*
X151740302Y-78473748D01*
X151786797Y-78468999D01*
X151953334Y-78413814D01*
X152102656Y-78321712D01*
X152195822Y-78228545D01*
X152257141Y-78195063D01*
X152326833Y-78200047D01*
X152382767Y-78241918D01*
X152407184Y-78307382D01*
X152407500Y-78316229D01*
X152407500Y-79201770D01*
X152387815Y-79268809D01*
X152335011Y-79314564D01*
X152265853Y-79324508D01*
X152202297Y-79295483D01*
X152195819Y-79289451D01*
X152102657Y-79196289D01*
X152102656Y-79196288D01*
X151968389Y-79113472D01*
X151953336Y-79104187D01*
X151953331Y-79104185D01*
X151938112Y-79099142D01*
X151786797Y-79049001D01*
X151786795Y-79049000D01*
X151684010Y-79038500D01*
X151083999Y-79038500D01*
X151083983Y-79038501D01*
X151073413Y-79039581D01*
X151004721Y-79026807D01*
X150973138Y-79003903D01*
X150459228Y-78489993D01*
X150453874Y-78483888D01*
X150432186Y-78455622D01*
X150432183Y-78455620D01*
X150432182Y-78455618D01*
X150338317Y-78383593D01*
X150297116Y-78327165D01*
X150292961Y-78257419D01*
X150322711Y-78203704D01*
X150321836Y-78203012D01*
X150326038Y-78197696D01*
X150326132Y-78197528D01*
X150326319Y-78197340D01*
X150328165Y-78194348D01*
X150329970Y-78192724D01*
X150330795Y-78191681D01*
X150330973Y-78191821D01*
X150380110Y-78147621D01*
X150449073Y-78136396D01*
X150513156Y-78164236D01*
G37*
%TD.AperFunction*%
%TA.AperFunction,Conductor*%
G36*
X142900596Y-77361577D02*
G01*
X142944942Y-77390077D01*
X143372804Y-77817939D01*
X143406289Y-77879262D01*
X143402829Y-77944624D01*
X143354913Y-78089223D01*
X143344500Y-78191144D01*
X143344500Y-78777857D01*
X143351306Y-78844473D01*
X143338536Y-78913166D01*
X143290656Y-78964050D01*
X143222866Y-78980971D01*
X143214066Y-78980295D01*
X143186905Y-78977235D01*
X143186896Y-78977235D01*
X143040583Y-78993720D01*
X142971761Y-78981665D01*
X142920382Y-78934316D01*
X142902758Y-78866706D01*
X142908315Y-78833610D01*
X142954590Y-78685106D01*
X142961000Y-78614572D01*
X142961000Y-78608000D01*
X141927500Y-78608000D01*
X141860461Y-78588315D01*
X141814706Y-78535511D01*
X141803500Y-78484000D01*
X141803500Y-78232000D01*
X141823185Y-78164961D01*
X141875989Y-78119206D01*
X141927500Y-78108000D01*
X142960999Y-78108000D01*
X142960999Y-78101417D01*
X142954591Y-78030897D01*
X142954590Y-78030892D01*
X142904018Y-77868603D01*
X142816072Y-77723122D01*
X142713984Y-77621034D01*
X142680499Y-77559711D01*
X142685483Y-77490019D01*
X142713983Y-77445673D01*
X142769581Y-77390076D01*
X142830904Y-77356592D01*
X142900596Y-77361577D01*
G37*
%TD.AperFunction*%
%TD*%
M02*
