M48
; DRILL file {KiCad 7.0.6} date Mon Apr  1 13:07:53 2024
; FORMAT={-:-/ absolute / inch / decimal}
; #@! TF.CreationDate,2024-04-01T13:07:53+03:00
; #@! TF.GenerationSoftware,Kicad,Pcbnew,7.0.6
; #@! TF.FileFunction,Plated,1,2,PTH
FMAT,2
INCH
; #@! TA.AperFunction,Plated,PTH,ViaDrill
T1C0.0118
; #@! TA.AperFunction,Plated,PTH,ComponentDrill
T2C0.0472
%
G90
G05
T1
X5.0181Y-3.4102
X5.0185Y-3.4903
X5.0584Y-3.3717
X5.0908Y-3.3816
X5.1104Y-3.5298
X5.1487Y-3.0248
X5.1621Y-3.7054
X5.2068Y-3.5225
X5.209Y-3.5723
X5.2107Y-3.6244
X5.2398Y-3.6481
X5.2447Y-3.5998
X5.2476Y-3.5104
X5.2891Y-3.2702
X5.3039Y-3.6879
X5.3291Y-3.5234
X5.3351Y-3.2245
X5.3485Y-3.099
X5.3814Y-3.3637
X5.3993Y-3.5407
X5.4177Y-3.2929
X5.5079Y-3.6847
X5.513Y-3.6276
X5.5142Y-3.2064
X5.5182Y-3.8085
X5.5351Y-3.0919
X5.6082Y-3.1814
X5.6373Y-3.1411
X5.6807Y-3.5638
X5.6828Y-3.2697
X5.6867Y-3.2064
X5.6898Y-3.4797
X5.7631Y-3.7095
X5.8185Y-3.6791
X5.8268Y-3.7471
X5.8389Y-3.2608
X5.8403Y-3.4615
X5.8438Y-3.0569
X5.8452Y-3.3757
X5.8813Y-3.2214
X5.9002Y-3.2624
X5.925Y-3.3109
X5.9708Y-3.6561
T2
X4.97Y-3.36
X4.97Y-3.46
X4.97Y-3.56
X4.97Y-3.66
T0
M30
