%TF.GenerationSoftware,KiCad,Pcbnew,7.0.6*%
%TF.CreationDate,2024-04-01T13:07:51+03:00*%
%TF.ProjectId,SIM800 GPS Module,53494d38-3030-4204-9750-53204d6f6475,rev?*%
%TF.SameCoordinates,Original*%
%TF.FileFunction,Legend,Top*%
%TF.FilePolarity,Positive*%
%FSLAX46Y46*%
G04 Gerber Fmt 4.6, Leading zero omitted, Abs format (unit mm)*
G04 Created by KiCad (PCBNEW 7.0.6) date 2024-04-01 13:07:51*
%MOMM*%
%LPD*%
G01*
G04 APERTURE LIST*
%ADD10C,0.150000*%
%ADD11C,0.152400*%
%ADD12C,0.120000*%
%ADD13C,0.127000*%
G04 APERTURE END LIST*
D10*
X124676819Y-80454404D02*
X125486342Y-80454404D01*
X125486342Y-80454404D02*
X125581580Y-80406785D01*
X125581580Y-80406785D02*
X125629200Y-80359166D01*
X125629200Y-80359166D02*
X125676819Y-80263928D01*
X125676819Y-80263928D02*
X125676819Y-80073452D01*
X125676819Y-80073452D02*
X125629200Y-79978214D01*
X125629200Y-79978214D02*
X125581580Y-79930595D01*
X125581580Y-79930595D02*
X125486342Y-79882976D01*
X125486342Y-79882976D02*
X124676819Y-79882976D01*
X124772057Y-79454404D02*
X124724438Y-79406785D01*
X124724438Y-79406785D02*
X124676819Y-79311547D01*
X124676819Y-79311547D02*
X124676819Y-79073452D01*
X124676819Y-79073452D02*
X124724438Y-78978214D01*
X124724438Y-78978214D02*
X124772057Y-78930595D01*
X124772057Y-78930595D02*
X124867295Y-78882976D01*
X124867295Y-78882976D02*
X124962533Y-78882976D01*
X124962533Y-78882976D02*
X125105390Y-78930595D01*
X125105390Y-78930595D02*
X125676819Y-79502023D01*
X125676819Y-79502023D02*
X125676819Y-78882976D01*
X136652095Y-82512819D02*
X136652095Y-83322342D01*
X136652095Y-83322342D02*
X136699714Y-83417580D01*
X136699714Y-83417580D02*
X136747333Y-83465200D01*
X136747333Y-83465200D02*
X136842571Y-83512819D01*
X136842571Y-83512819D02*
X137033047Y-83512819D01*
X137033047Y-83512819D02*
X137128285Y-83465200D01*
X137128285Y-83465200D02*
X137175904Y-83417580D01*
X137175904Y-83417580D02*
X137223523Y-83322342D01*
X137223523Y-83322342D02*
X137223523Y-82512819D01*
X138223523Y-83512819D02*
X137652095Y-83512819D01*
X137937809Y-83512819D02*
X137937809Y-82512819D01*
X137937809Y-82512819D02*
X137842571Y-82655676D01*
X137842571Y-82655676D02*
X137747333Y-82750914D01*
X137747333Y-82750914D02*
X137652095Y-82798533D01*
X128133142Y-91994819D02*
X127799809Y-91518628D01*
X127561714Y-91994819D02*
X127561714Y-90994819D01*
X127561714Y-90994819D02*
X127942666Y-90994819D01*
X127942666Y-90994819D02*
X128037904Y-91042438D01*
X128037904Y-91042438D02*
X128085523Y-91090057D01*
X128085523Y-91090057D02*
X128133142Y-91185295D01*
X128133142Y-91185295D02*
X128133142Y-91328152D01*
X128133142Y-91328152D02*
X128085523Y-91423390D01*
X128085523Y-91423390D02*
X128037904Y-91471009D01*
X128037904Y-91471009D02*
X127942666Y-91518628D01*
X127942666Y-91518628D02*
X127561714Y-91518628D01*
X129085523Y-91994819D02*
X128514095Y-91994819D01*
X128799809Y-91994819D02*
X128799809Y-90994819D01*
X128799809Y-90994819D02*
X128704571Y-91137676D01*
X128704571Y-91137676D02*
X128609333Y-91232914D01*
X128609333Y-91232914D02*
X128514095Y-91280533D01*
X129704571Y-90994819D02*
X129799809Y-90994819D01*
X129799809Y-90994819D02*
X129895047Y-91042438D01*
X129895047Y-91042438D02*
X129942666Y-91090057D01*
X129942666Y-91090057D02*
X129990285Y-91185295D01*
X129990285Y-91185295D02*
X130037904Y-91375771D01*
X130037904Y-91375771D02*
X130037904Y-91613866D01*
X130037904Y-91613866D02*
X129990285Y-91804342D01*
X129990285Y-91804342D02*
X129942666Y-91899580D01*
X129942666Y-91899580D02*
X129895047Y-91947200D01*
X129895047Y-91947200D02*
X129799809Y-91994819D01*
X129799809Y-91994819D02*
X129704571Y-91994819D01*
X129704571Y-91994819D02*
X129609333Y-91947200D01*
X129609333Y-91947200D02*
X129561714Y-91899580D01*
X129561714Y-91899580D02*
X129514095Y-91804342D01*
X129514095Y-91804342D02*
X129466476Y-91613866D01*
X129466476Y-91613866D02*
X129466476Y-91375771D01*
X129466476Y-91375771D02*
X129514095Y-91185295D01*
X129514095Y-91185295D02*
X129561714Y-91090057D01*
X129561714Y-91090057D02*
X129609333Y-91042438D01*
X129609333Y-91042438D02*
X129704571Y-90994819D01*
X128609333Y-90004819D02*
X128276000Y-89528628D01*
X128037905Y-90004819D02*
X128037905Y-89004819D01*
X128037905Y-89004819D02*
X128418857Y-89004819D01*
X128418857Y-89004819D02*
X128514095Y-89052438D01*
X128514095Y-89052438D02*
X128561714Y-89100057D01*
X128561714Y-89100057D02*
X128609333Y-89195295D01*
X128609333Y-89195295D02*
X128609333Y-89338152D01*
X128609333Y-89338152D02*
X128561714Y-89433390D01*
X128561714Y-89433390D02*
X128514095Y-89481009D01*
X128514095Y-89481009D02*
X128418857Y-89528628D01*
X128418857Y-89528628D02*
X128037905Y-89528628D01*
X129085524Y-90004819D02*
X129276000Y-90004819D01*
X129276000Y-90004819D02*
X129371238Y-89957200D01*
X129371238Y-89957200D02*
X129418857Y-89909580D01*
X129418857Y-89909580D02*
X129514095Y-89766723D01*
X129514095Y-89766723D02*
X129561714Y-89576247D01*
X129561714Y-89576247D02*
X129561714Y-89195295D01*
X129561714Y-89195295D02*
X129514095Y-89100057D01*
X129514095Y-89100057D02*
X129466476Y-89052438D01*
X129466476Y-89052438D02*
X129371238Y-89004819D01*
X129371238Y-89004819D02*
X129180762Y-89004819D01*
X129180762Y-89004819D02*
X129085524Y-89052438D01*
X129085524Y-89052438D02*
X129037905Y-89100057D01*
X129037905Y-89100057D02*
X128990286Y-89195295D01*
X128990286Y-89195295D02*
X128990286Y-89433390D01*
X128990286Y-89433390D02*
X129037905Y-89528628D01*
X129037905Y-89528628D02*
X129085524Y-89576247D01*
X129085524Y-89576247D02*
X129180762Y-89623866D01*
X129180762Y-89623866D02*
X129371238Y-89623866D01*
X129371238Y-89623866D02*
X129466476Y-89576247D01*
X129466476Y-89576247D02*
X129514095Y-89528628D01*
X129514095Y-89528628D02*
X129561714Y-89433390D01*
X128609333Y-88014819D02*
X128276000Y-87538628D01*
X128037905Y-88014819D02*
X128037905Y-87014819D01*
X128037905Y-87014819D02*
X128418857Y-87014819D01*
X128418857Y-87014819D02*
X128514095Y-87062438D01*
X128514095Y-87062438D02*
X128561714Y-87110057D01*
X128561714Y-87110057D02*
X128609333Y-87205295D01*
X128609333Y-87205295D02*
X128609333Y-87348152D01*
X128609333Y-87348152D02*
X128561714Y-87443390D01*
X128561714Y-87443390D02*
X128514095Y-87491009D01*
X128514095Y-87491009D02*
X128418857Y-87538628D01*
X128418857Y-87538628D02*
X128037905Y-87538628D01*
X129180762Y-87443390D02*
X129085524Y-87395771D01*
X129085524Y-87395771D02*
X129037905Y-87348152D01*
X129037905Y-87348152D02*
X128990286Y-87252914D01*
X128990286Y-87252914D02*
X128990286Y-87205295D01*
X128990286Y-87205295D02*
X129037905Y-87110057D01*
X129037905Y-87110057D02*
X129085524Y-87062438D01*
X129085524Y-87062438D02*
X129180762Y-87014819D01*
X129180762Y-87014819D02*
X129371238Y-87014819D01*
X129371238Y-87014819D02*
X129466476Y-87062438D01*
X129466476Y-87062438D02*
X129514095Y-87110057D01*
X129514095Y-87110057D02*
X129561714Y-87205295D01*
X129561714Y-87205295D02*
X129561714Y-87252914D01*
X129561714Y-87252914D02*
X129514095Y-87348152D01*
X129514095Y-87348152D02*
X129466476Y-87395771D01*
X129466476Y-87395771D02*
X129371238Y-87443390D01*
X129371238Y-87443390D02*
X129180762Y-87443390D01*
X129180762Y-87443390D02*
X129085524Y-87491009D01*
X129085524Y-87491009D02*
X129037905Y-87538628D01*
X129037905Y-87538628D02*
X128990286Y-87633866D01*
X128990286Y-87633866D02*
X128990286Y-87824342D01*
X128990286Y-87824342D02*
X129037905Y-87919580D01*
X129037905Y-87919580D02*
X129085524Y-87967200D01*
X129085524Y-87967200D02*
X129180762Y-88014819D01*
X129180762Y-88014819D02*
X129371238Y-88014819D01*
X129371238Y-88014819D02*
X129466476Y-87967200D01*
X129466476Y-87967200D02*
X129514095Y-87919580D01*
X129514095Y-87919580D02*
X129561714Y-87824342D01*
X129561714Y-87824342D02*
X129561714Y-87633866D01*
X129561714Y-87633866D02*
X129514095Y-87538628D01*
X129514095Y-87538628D02*
X129466476Y-87491009D01*
X129466476Y-87491009D02*
X129371238Y-87443390D01*
X128609333Y-86024819D02*
X128276000Y-85548628D01*
X128037905Y-86024819D02*
X128037905Y-85024819D01*
X128037905Y-85024819D02*
X128418857Y-85024819D01*
X128418857Y-85024819D02*
X128514095Y-85072438D01*
X128514095Y-85072438D02*
X128561714Y-85120057D01*
X128561714Y-85120057D02*
X128609333Y-85215295D01*
X128609333Y-85215295D02*
X128609333Y-85358152D01*
X128609333Y-85358152D02*
X128561714Y-85453390D01*
X128561714Y-85453390D02*
X128514095Y-85501009D01*
X128514095Y-85501009D02*
X128418857Y-85548628D01*
X128418857Y-85548628D02*
X128037905Y-85548628D01*
X128942667Y-85024819D02*
X129609333Y-85024819D01*
X129609333Y-85024819D02*
X129180762Y-86024819D01*
X128609333Y-84034819D02*
X128276000Y-83558628D01*
X128037905Y-84034819D02*
X128037905Y-83034819D01*
X128037905Y-83034819D02*
X128418857Y-83034819D01*
X128418857Y-83034819D02*
X128514095Y-83082438D01*
X128514095Y-83082438D02*
X128561714Y-83130057D01*
X128561714Y-83130057D02*
X128609333Y-83225295D01*
X128609333Y-83225295D02*
X128609333Y-83368152D01*
X128609333Y-83368152D02*
X128561714Y-83463390D01*
X128561714Y-83463390D02*
X128514095Y-83511009D01*
X128514095Y-83511009D02*
X128418857Y-83558628D01*
X128418857Y-83558628D02*
X128037905Y-83558628D01*
X128942667Y-83034819D02*
X129561714Y-83034819D01*
X129561714Y-83034819D02*
X129228381Y-83415771D01*
X129228381Y-83415771D02*
X129371238Y-83415771D01*
X129371238Y-83415771D02*
X129466476Y-83463390D01*
X129466476Y-83463390D02*
X129514095Y-83511009D01*
X129514095Y-83511009D02*
X129561714Y-83606247D01*
X129561714Y-83606247D02*
X129561714Y-83844342D01*
X129561714Y-83844342D02*
X129514095Y-83939580D01*
X129514095Y-83939580D02*
X129466476Y-83987200D01*
X129466476Y-83987200D02*
X129371238Y-84034819D01*
X129371238Y-84034819D02*
X129085524Y-84034819D01*
X129085524Y-84034819D02*
X128990286Y-83987200D01*
X128990286Y-83987200D02*
X128942667Y-83939580D01*
X150097261Y-92384057D02*
X150002023Y-92336438D01*
X150002023Y-92336438D02*
X149906785Y-92241200D01*
X149906785Y-92241200D02*
X149763928Y-92098342D01*
X149763928Y-92098342D02*
X149668690Y-92050723D01*
X149668690Y-92050723D02*
X149573452Y-92050723D01*
X149621071Y-92288819D02*
X149525833Y-92241200D01*
X149525833Y-92241200D02*
X149430595Y-92145961D01*
X149430595Y-92145961D02*
X149382976Y-91955485D01*
X149382976Y-91955485D02*
X149382976Y-91622152D01*
X149382976Y-91622152D02*
X149430595Y-91431676D01*
X149430595Y-91431676D02*
X149525833Y-91336438D01*
X149525833Y-91336438D02*
X149621071Y-91288819D01*
X149621071Y-91288819D02*
X149811547Y-91288819D01*
X149811547Y-91288819D02*
X149906785Y-91336438D01*
X149906785Y-91336438D02*
X150002023Y-91431676D01*
X150002023Y-91431676D02*
X150049642Y-91622152D01*
X150049642Y-91622152D02*
X150049642Y-91955485D01*
X150049642Y-91955485D02*
X150002023Y-92145961D01*
X150002023Y-92145961D02*
X149906785Y-92241200D01*
X149906785Y-92241200D02*
X149811547Y-92288819D01*
X149811547Y-92288819D02*
X149621071Y-92288819D01*
X150382976Y-91288819D02*
X151002023Y-91288819D01*
X151002023Y-91288819D02*
X150668690Y-91669771D01*
X150668690Y-91669771D02*
X150811547Y-91669771D01*
X150811547Y-91669771D02*
X150906785Y-91717390D01*
X150906785Y-91717390D02*
X150954404Y-91765009D01*
X150954404Y-91765009D02*
X151002023Y-91860247D01*
X151002023Y-91860247D02*
X151002023Y-92098342D01*
X151002023Y-92098342D02*
X150954404Y-92193580D01*
X150954404Y-92193580D02*
X150906785Y-92241200D01*
X150906785Y-92241200D02*
X150811547Y-92288819D01*
X150811547Y-92288819D02*
X150525833Y-92288819D01*
X150525833Y-92288819D02*
X150430595Y-92241200D01*
X150430595Y-92241200D02*
X150382976Y-92193580D01*
X150097261Y-87934057D02*
X150002023Y-87886438D01*
X150002023Y-87886438D02*
X149906785Y-87791200D01*
X149906785Y-87791200D02*
X149763928Y-87648342D01*
X149763928Y-87648342D02*
X149668690Y-87600723D01*
X149668690Y-87600723D02*
X149573452Y-87600723D01*
X149621071Y-87838819D02*
X149525833Y-87791200D01*
X149525833Y-87791200D02*
X149430595Y-87695961D01*
X149430595Y-87695961D02*
X149382976Y-87505485D01*
X149382976Y-87505485D02*
X149382976Y-87172152D01*
X149382976Y-87172152D02*
X149430595Y-86981676D01*
X149430595Y-86981676D02*
X149525833Y-86886438D01*
X149525833Y-86886438D02*
X149621071Y-86838819D01*
X149621071Y-86838819D02*
X149811547Y-86838819D01*
X149811547Y-86838819D02*
X149906785Y-86886438D01*
X149906785Y-86886438D02*
X150002023Y-86981676D01*
X150002023Y-86981676D02*
X150049642Y-87172152D01*
X150049642Y-87172152D02*
X150049642Y-87505485D01*
X150049642Y-87505485D02*
X150002023Y-87695961D01*
X150002023Y-87695961D02*
X149906785Y-87791200D01*
X149906785Y-87791200D02*
X149811547Y-87838819D01*
X149811547Y-87838819D02*
X149621071Y-87838819D01*
X150430595Y-86934057D02*
X150478214Y-86886438D01*
X150478214Y-86886438D02*
X150573452Y-86838819D01*
X150573452Y-86838819D02*
X150811547Y-86838819D01*
X150811547Y-86838819D02*
X150906785Y-86886438D01*
X150906785Y-86886438D02*
X150954404Y-86934057D01*
X150954404Y-86934057D02*
X151002023Y-87029295D01*
X151002023Y-87029295D02*
X151002023Y-87124533D01*
X151002023Y-87124533D02*
X150954404Y-87267390D01*
X150954404Y-87267390D02*
X150382976Y-87838819D01*
X150382976Y-87838819D02*
X151002023Y-87838819D01*
X149843261Y-84002057D02*
X149748023Y-83954438D01*
X149748023Y-83954438D02*
X149652785Y-83859200D01*
X149652785Y-83859200D02*
X149509928Y-83716342D01*
X149509928Y-83716342D02*
X149414690Y-83668723D01*
X149414690Y-83668723D02*
X149319452Y-83668723D01*
X149367071Y-83906819D02*
X149271833Y-83859200D01*
X149271833Y-83859200D02*
X149176595Y-83763961D01*
X149176595Y-83763961D02*
X149128976Y-83573485D01*
X149128976Y-83573485D02*
X149128976Y-83240152D01*
X149128976Y-83240152D02*
X149176595Y-83049676D01*
X149176595Y-83049676D02*
X149271833Y-82954438D01*
X149271833Y-82954438D02*
X149367071Y-82906819D01*
X149367071Y-82906819D02*
X149557547Y-82906819D01*
X149557547Y-82906819D02*
X149652785Y-82954438D01*
X149652785Y-82954438D02*
X149748023Y-83049676D01*
X149748023Y-83049676D02*
X149795642Y-83240152D01*
X149795642Y-83240152D02*
X149795642Y-83573485D01*
X149795642Y-83573485D02*
X149748023Y-83763961D01*
X149748023Y-83763961D02*
X149652785Y-83859200D01*
X149652785Y-83859200D02*
X149557547Y-83906819D01*
X149557547Y-83906819D02*
X149367071Y-83906819D01*
X150748023Y-83906819D02*
X150176595Y-83906819D01*
X150462309Y-83906819D02*
X150462309Y-82906819D01*
X150462309Y-82906819D02*
X150367071Y-83049676D01*
X150367071Y-83049676D02*
X150271833Y-83144914D01*
X150271833Y-83144914D02*
X150176595Y-83192533D01*
X150089800Y-77449911D02*
X150089800Y-78022256D01*
X150089800Y-78022256D02*
X150051644Y-78136725D01*
X150051644Y-78136725D02*
X149975331Y-78213038D01*
X149975331Y-78213038D02*
X149860862Y-78251194D01*
X149860862Y-78251194D02*
X149784550Y-78251194D01*
X150891083Y-78251194D02*
X150433207Y-78251194D01*
X150662145Y-78251194D02*
X150662145Y-77449911D01*
X150662145Y-77449911D02*
X150585832Y-77564380D01*
X150585832Y-77564380D02*
X150509520Y-77640693D01*
X150509520Y-77640693D02*
X150433207Y-77678849D01*
D11*
%TO.C,U2*%
X128993900Y-84315300D02*
G75*
G03*
X128993900Y-84315300I-127000J0D01*
G01*
X127203200Y-83172300D02*
X127203200Y-76212700D01*
X127203200Y-76212700D02*
X123240800Y-76212700D01*
X123240800Y-76212700D02*
X123240800Y-83172300D01*
X123240800Y-83172300D02*
X127203200Y-83172300D01*
D12*
%TO.C,U1*%
X130940000Y-95110000D02*
X133900000Y-95110000D01*
X130940000Y-95110000D02*
X130940000Y-92800000D01*
X131050000Y-77290000D02*
X133900000Y-77290000D01*
X146860000Y-95110000D02*
X146860000Y-92800000D01*
X146860000Y-77290000D02*
X143900000Y-77290000D01*
X146860000Y-77290000D02*
X146860000Y-79600000D01*
X146860000Y-95110000D02*
X143900000Y-95110000D01*
%TO.C,R10*%
X128622359Y-92330000D02*
X128929641Y-92330000D01*
X128622359Y-93090000D02*
X128929641Y-93090000D01*
%TO.C,R9*%
X128622359Y-90340000D02*
X128929641Y-90340000D01*
X128622359Y-91100000D02*
X128929641Y-91100000D01*
%TO.C,R8*%
X128622359Y-88350000D02*
X128929641Y-88350000D01*
X128622359Y-89110000D02*
X128929641Y-89110000D01*
%TO.C,R7*%
X128622359Y-86360000D02*
X128929641Y-86360000D01*
X128622359Y-87120000D02*
X128929641Y-87120000D01*
%TO.C,R3*%
X128622359Y-84370000D02*
X128929641Y-84370000D01*
X128622359Y-85130000D02*
X128929641Y-85130000D01*
%TO.C,Q3*%
X150192500Y-92674000D02*
X150842500Y-92674000D01*
X150192500Y-95794000D02*
X150842500Y-95794000D01*
X150192500Y-92674000D02*
X148517500Y-92674000D01*
X150192500Y-95794000D02*
X149542500Y-95794000D01*
%TO.C,Q2*%
X150192500Y-88224000D02*
X150842500Y-88224000D01*
X150192500Y-91344000D02*
X150842500Y-91344000D01*
X150192500Y-88224000D02*
X148517500Y-88224000D01*
X150192500Y-91344000D02*
X149542500Y-91344000D01*
%TO.C,Q1*%
X149938500Y-84292000D02*
X150588500Y-84292000D01*
X149938500Y-87412000D02*
X150588500Y-87412000D01*
X149938500Y-84292000D02*
X148263500Y-84292000D01*
X149938500Y-87412000D02*
X149288500Y-87412000D01*
D13*
%TO.C,J1*%
X149117000Y-78900000D02*
X151717000Y-78900000D01*
X149117000Y-81500000D02*
X149747000Y-81500000D01*
X151717000Y-81500000D02*
X151087000Y-81500000D01*
%TD*%
M02*
