%TF.GenerationSoftware,KiCad,Pcbnew,7.0.6*%
%TF.CreationDate,2024-04-01T13:07:51+03:00*%
%TF.ProjectId,SIM800 GPS Module,53494d38-3030-4204-9750-53204d6f6475,rev?*%
%TF.SameCoordinates,Original*%
%TF.FileFunction,Soldermask,Bot*%
%TF.FilePolarity,Negative*%
%FSLAX46Y46*%
G04 Gerber Fmt 4.6, Leading zero omitted, Abs format (unit mm)*
G04 Created by KiCad (PCBNEW 7.0.6) date 2024-04-01 13:07:51*
%MOMM*%
%LPD*%
G01*
G04 APERTURE LIST*
G04 Aperture macros list*
%AMRoundRect*
0 Rectangle with rounded corners*
0 $1 Rounding radius*
0 $2 $3 $4 $5 $6 $7 $8 $9 X,Y pos of 4 corners*
0 Add a 4 corners polygon primitive as box body*
4,1,4,$2,$3,$4,$5,$6,$7,$8,$9,$2,$3,0*
0 Add four circle primitives for the rounded corners*
1,1,$1+$1,$2,$3*
1,1,$1+$1,$4,$5*
1,1,$1+$1,$6,$7*
1,1,$1+$1,$8,$9*
0 Add four rect primitives between the rounded corners*
20,1,$1+$1,$2,$3,$4,$5,0*
20,1,$1+$1,$4,$5,$6,$7,0*
20,1,$1+$1,$6,$7,$8,$9,0*
20,1,$1+$1,$8,$9,$2,$3,0*%
G04 Aperture macros list end*
%ADD10C,2.004000*%
%ADD11RoundRect,0.102000X0.900000X-0.900000X0.900000X0.900000X-0.900000X0.900000X-0.900000X-0.900000X0*%
%ADD12RoundRect,0.200000X-0.275000X0.200000X-0.275000X-0.200000X0.275000X-0.200000X0.275000X0.200000X0*%
%ADD13RoundRect,0.243750X-0.456250X0.243750X-0.456250X-0.243750X0.456250X-0.243750X0.456250X0.243750X0*%
%ADD14RoundRect,0.250000X0.250000X0.475000X-0.250000X0.475000X-0.250000X-0.475000X0.250000X-0.475000X0*%
%ADD15RoundRect,0.250000X0.450000X-0.262500X0.450000X0.262500X-0.450000X0.262500X-0.450000X-0.262500X0*%
%ADD16RoundRect,0.102000X0.500000X0.550000X-0.500000X0.550000X-0.500000X-0.550000X0.500000X-0.550000X0*%
%ADD17RoundRect,0.102000X0.500000X1.500000X-0.500000X1.500000X-0.500000X-1.500000X0.500000X-1.500000X0*%
%ADD18RoundRect,0.102000X-0.615000X-0.200000X0.615000X-0.200000X0.615000X0.200000X-0.615000X0.200000X0*%
%ADD19RoundRect,0.243750X0.456250X-0.243750X0.456250X0.243750X-0.456250X0.243750X-0.456250X-0.243750X0*%
G04 APERTURE END LIST*
D10*
%TO.C,J3*%
X126238000Y-85344000D03*
X126238000Y-87884000D03*
X126238000Y-90424000D03*
D11*
X126238000Y-92964000D03*
%TD*%
D12*
%TO.C,RE*%
X147320000Y-76962000D03*
X147320000Y-78612000D03*
%TD*%
D13*
%TO.C,DE*%
X144545000Y-76609500D03*
X144545000Y-78484500D03*
%TD*%
D14*
%TO.C,C6*%
X151384000Y-80264000D03*
X149484000Y-80264000D03*
%TD*%
%TO.C,C5*%
X151384000Y-77254000D03*
X149484000Y-77254000D03*
%TD*%
D12*
%TO.C,R6*%
X141986000Y-76708000D03*
X141986000Y-78358000D03*
%TD*%
%TO.C,R5*%
X139476000Y-76708000D03*
X139476000Y-78358000D03*
%TD*%
D15*
%TO.C,R4*%
X132903000Y-96298000D03*
X132903000Y-94473000D03*
%TD*%
D12*
%TO.C,R2*%
X136966000Y-76708000D03*
X136966000Y-78358000D03*
%TD*%
%TO.C,R1*%
X134456000Y-76708000D03*
X134456000Y-78358000D03*
%TD*%
D16*
%TO.C,J2*%
X136360000Y-92100000D03*
X138900000Y-92100000D03*
X141440000Y-92100000D03*
D17*
X133600000Y-86200000D03*
D16*
X136360000Y-80300000D03*
X138900000Y-80300000D03*
X141440000Y-80300000D03*
D17*
X144200000Y-86200000D03*
%TD*%
D18*
%TO.C,D3*%
X142824000Y-95138000D03*
X144704000Y-93838000D03*
X142824000Y-94488000D03*
X142824000Y-93838000D03*
X144704000Y-95138000D03*
%TD*%
D19*
%TO.C,D2*%
X135898000Y-96363000D03*
X135898000Y-94488000D03*
%TD*%
%TO.C,D1*%
X138938000Y-96363000D03*
X138938000Y-94488000D03*
%TD*%
D14*
%TO.C,C4*%
X151384000Y-94234000D03*
X149484000Y-94234000D03*
%TD*%
%TO.C,C3*%
X151384000Y-91224000D03*
X149484000Y-91224000D03*
%TD*%
%TO.C,C2*%
X151384000Y-88214000D03*
X149484000Y-88214000D03*
%TD*%
%TO.C,C1*%
X151384000Y-85204000D03*
X149484000Y-85204000D03*
%TD*%
M02*
