%TF.GenerationSoftware,KiCad,Pcbnew,7.0.6*%
%TF.CreationDate,2024-04-01T13:07:54+03:00*%
%TF.ProjectId,SIM800 GPS Module,53494d38-3030-4204-9750-53204d6f6475,rev?*%
%TF.SameCoordinates,Original*%
%TF.FileFunction,Drillmap*%
%TF.FilePolarity,Positive*%
%FSLAX45Y45*%
G04 Gerber Fmt 4.5, Leading zero omitted, Abs format (unit mm)*
G04 Created by KiCad (PCBNEW 7.0.6) date 2024-04-01 13:07:54*
%MOMM*%
%LPD*%
G01*
G04 APERTURE LIST*
%ADD10C,0.050000*%
%ADD11C,0.200000*%
%ADD12C,0.030000*%
%ADD13C,0.120000*%
G04 APERTURE END LIST*
D10*
X12090400Y-7569200D02*
X15290800Y-7569200D01*
X15290800Y-9728200D01*
X12090400Y-9728200D01*
X12090400Y-7569200D01*
D11*
D12*
X12730860Y-8646880D02*
X12760860Y-8676880D01*
X12760860Y-8646880D02*
X12730860Y-8676880D01*
X12731920Y-8850300D02*
X12761920Y-8880300D01*
X12761920Y-8850300D02*
X12731920Y-8880300D01*
X12833300Y-8549030D02*
X12863300Y-8579030D01*
X12863300Y-8549030D02*
X12833300Y-8579030D01*
X12915620Y-8574170D02*
X12945620Y-8604170D01*
X12945620Y-8574170D02*
X12915620Y-8604170D01*
X12965530Y-8950640D02*
X12995530Y-8980640D01*
X12995530Y-8950640D02*
X12965530Y-8980640D01*
X13062590Y-7668060D02*
X13092590Y-7698060D01*
X13092590Y-7668060D02*
X13062590Y-7698060D01*
X13096860Y-9396610D02*
X13126860Y-9426610D01*
X13126860Y-9396610D02*
X13096860Y-9426610D01*
X13210370Y-8932170D02*
X13240370Y-8962170D01*
X13240370Y-8932170D02*
X13210370Y-8962170D01*
X13215810Y-9058630D02*
X13245810Y-9088630D01*
X13245810Y-9058630D02*
X13215810Y-9088630D01*
X13220250Y-9191080D02*
X13250250Y-9221080D01*
X13250250Y-9191080D02*
X13220250Y-9221080D01*
X13294160Y-9251270D02*
X13324160Y-9281270D01*
X13324160Y-9251270D02*
X13294160Y-9281270D01*
X13306540Y-9128560D02*
X13336540Y-9158560D01*
X13336540Y-9128560D02*
X13306540Y-9158560D01*
X13313960Y-8901290D02*
X13343960Y-8931290D01*
X13343960Y-8901290D02*
X13313960Y-8931290D01*
X13419410Y-8291220D02*
X13449410Y-8321220D01*
X13449410Y-8291220D02*
X13419410Y-8321220D01*
X13456930Y-9352330D02*
X13486930Y-9382330D01*
X13486930Y-9352330D02*
X13456930Y-9382330D01*
X13521000Y-8934450D02*
X13551000Y-8964450D01*
X13551000Y-8934450D02*
X13521000Y-8964450D01*
X13536180Y-8175190D02*
X13566180Y-8205190D01*
X13566180Y-8175190D02*
X13536180Y-8205190D01*
X13570290Y-7856450D02*
X13600290Y-7886450D01*
X13600290Y-7856450D02*
X13570290Y-7886450D01*
X13653850Y-8528730D02*
X13683850Y-8558730D01*
X13683850Y-8528730D02*
X13653850Y-8558730D01*
X13699130Y-8978400D02*
X13729130Y-9008400D01*
X13729130Y-8978400D02*
X13699130Y-9008400D01*
X13745960Y-8349040D02*
X13775960Y-8379040D01*
X13775960Y-8349040D02*
X13745960Y-8379040D01*
X13975000Y-9344100D02*
X14005000Y-9374100D01*
X14005000Y-9344100D02*
X13975000Y-9374100D01*
X13988010Y-9199210D02*
X14018010Y-9229210D01*
X14018010Y-9199210D02*
X13988010Y-9229210D01*
X13991170Y-8129380D02*
X14021170Y-8159380D01*
X14021170Y-8129380D02*
X13991170Y-8159380D01*
X14001210Y-9658690D02*
X14031210Y-9688690D01*
X14031210Y-9658690D02*
X14001210Y-9688690D01*
X14044250Y-7838370D02*
X14074250Y-7868370D01*
X14074250Y-7838370D02*
X14044250Y-7868370D01*
X14229780Y-8065650D02*
X14259780Y-8095650D01*
X14259780Y-8065650D02*
X14229780Y-8095650D01*
X14303690Y-7963280D02*
X14333690Y-7993280D01*
X14333690Y-7963280D02*
X14303690Y-7993280D01*
X14413970Y-9037080D02*
X14443970Y-9067080D01*
X14443970Y-9037080D02*
X14413970Y-9067080D01*
X14419200Y-8289960D02*
X14449200Y-8319960D01*
X14449200Y-8289960D02*
X14419200Y-8319960D01*
X14429290Y-8129380D02*
X14459290Y-8159380D01*
X14459290Y-8129380D02*
X14429290Y-8159380D01*
X14437210Y-8823440D02*
X14467210Y-8853440D01*
X14467210Y-8823440D02*
X14437210Y-8853440D01*
X14623250Y-9407080D02*
X14653250Y-9437080D01*
X14653250Y-9407080D02*
X14623250Y-9437080D01*
X14764030Y-9329920D02*
X14794030Y-9359920D01*
X14794030Y-9329920D02*
X14764030Y-9359920D01*
X14785180Y-9502760D02*
X14815180Y-9532760D01*
X14815180Y-9502760D02*
X14785180Y-9532760D01*
X14815770Y-8267340D02*
X14845770Y-8297340D01*
X14845770Y-8267340D02*
X14815770Y-8297340D01*
X14819420Y-8777320D02*
X14849420Y-8807320D01*
X14849420Y-8777320D02*
X14819420Y-8807320D01*
X14828280Y-7749650D02*
X14858280Y-7779650D01*
X14858280Y-7749650D02*
X14828280Y-7779650D01*
X14831750Y-8559240D02*
X14861750Y-8589240D01*
X14861750Y-8559240D02*
X14831750Y-8589240D01*
X14923410Y-8167310D02*
X14953410Y-8197310D01*
X14953410Y-8167310D02*
X14923410Y-8197310D01*
X14971550Y-8271530D02*
X15001550Y-8301530D01*
X15001550Y-8271530D02*
X14971550Y-8301530D01*
X15034490Y-8394600D02*
X15064490Y-8424600D01*
X15064490Y-8394600D02*
X15034490Y-8424600D01*
X15150710Y-9271580D02*
X15180710Y-9301580D01*
X15180710Y-9271580D02*
X15150710Y-9301580D01*
D13*
X12683800Y-8534400D02*
G75*
G03*
X12683800Y-8534400I-60000J0D01*
G01*
X12683800Y-8788400D02*
G75*
G03*
X12683800Y-8788400I-60000J0D01*
G01*
X12683800Y-9042400D02*
G75*
G03*
X12683800Y-9042400I-60000J0D01*
G01*
X12683800Y-9296400D02*
G75*
G03*
X12683800Y-9296400I-60000J0D01*
G01*
D11*
X12348677Y-10042184D02*
X12348677Y-9842184D01*
X12348677Y-9842184D02*
X12396296Y-9842184D01*
X12396296Y-9842184D02*
X12424867Y-9851708D01*
X12424867Y-9851708D02*
X12443915Y-9870755D01*
X12443915Y-9870755D02*
X12453439Y-9889803D01*
X12453439Y-9889803D02*
X12462962Y-9927898D01*
X12462962Y-9927898D02*
X12462962Y-9956470D01*
X12462962Y-9956470D02*
X12453439Y-9994565D01*
X12453439Y-9994565D02*
X12443915Y-10013612D01*
X12443915Y-10013612D02*
X12424867Y-10032660D01*
X12424867Y-10032660D02*
X12396296Y-10042184D01*
X12396296Y-10042184D02*
X12348677Y-10042184D01*
X12548677Y-10042184D02*
X12548677Y-9908850D01*
X12548677Y-9946946D02*
X12558201Y-9927898D01*
X12558201Y-9927898D02*
X12567724Y-9918374D01*
X12567724Y-9918374D02*
X12586772Y-9908850D01*
X12586772Y-9908850D02*
X12605820Y-9908850D01*
X12672486Y-10042184D02*
X12672486Y-9908850D01*
X12672486Y-9842184D02*
X12662962Y-9851708D01*
X12662962Y-9851708D02*
X12672486Y-9861231D01*
X12672486Y-9861231D02*
X12682010Y-9851708D01*
X12682010Y-9851708D02*
X12672486Y-9842184D01*
X12672486Y-9842184D02*
X12672486Y-9861231D01*
X12796296Y-10042184D02*
X12777248Y-10032660D01*
X12777248Y-10032660D02*
X12767724Y-10013612D01*
X12767724Y-10013612D02*
X12767724Y-9842184D01*
X12901058Y-10042184D02*
X12882010Y-10032660D01*
X12882010Y-10032660D02*
X12872486Y-10013612D01*
X12872486Y-10013612D02*
X12872486Y-9842184D01*
X13129629Y-10042184D02*
X13129629Y-9842184D01*
X13129629Y-9842184D02*
X13196296Y-9985041D01*
X13196296Y-9985041D02*
X13262962Y-9842184D01*
X13262962Y-9842184D02*
X13262962Y-10042184D01*
X13443915Y-10042184D02*
X13443915Y-9937422D01*
X13443915Y-9937422D02*
X13434391Y-9918374D01*
X13434391Y-9918374D02*
X13415343Y-9908850D01*
X13415343Y-9908850D02*
X13377248Y-9908850D01*
X13377248Y-9908850D02*
X13358201Y-9918374D01*
X13443915Y-10032660D02*
X13424867Y-10042184D01*
X13424867Y-10042184D02*
X13377248Y-10042184D01*
X13377248Y-10042184D02*
X13358201Y-10032660D01*
X13358201Y-10032660D02*
X13348677Y-10013612D01*
X13348677Y-10013612D02*
X13348677Y-9994565D01*
X13348677Y-9994565D02*
X13358201Y-9975517D01*
X13358201Y-9975517D02*
X13377248Y-9965993D01*
X13377248Y-9965993D02*
X13424867Y-9965993D01*
X13424867Y-9965993D02*
X13443915Y-9956470D01*
X13539153Y-9908850D02*
X13539153Y-10108850D01*
X13539153Y-9918374D02*
X13558201Y-9908850D01*
X13558201Y-9908850D02*
X13596296Y-9908850D01*
X13596296Y-9908850D02*
X13615343Y-9918374D01*
X13615343Y-9918374D02*
X13624867Y-9927898D01*
X13624867Y-9927898D02*
X13634391Y-9946946D01*
X13634391Y-9946946D02*
X13634391Y-10004089D01*
X13634391Y-10004089D02*
X13624867Y-10023136D01*
X13624867Y-10023136D02*
X13615343Y-10032660D01*
X13615343Y-10032660D02*
X13596296Y-10042184D01*
X13596296Y-10042184D02*
X13558201Y-10042184D01*
X13558201Y-10042184D02*
X13539153Y-10032660D01*
X13720105Y-10023136D02*
X13729629Y-10032660D01*
X13729629Y-10032660D02*
X13720105Y-10042184D01*
X13720105Y-10042184D02*
X13710582Y-10032660D01*
X13710582Y-10032660D02*
X13720105Y-10023136D01*
X13720105Y-10023136D02*
X13720105Y-10042184D01*
X13720105Y-9918374D02*
X13729629Y-9927898D01*
X13729629Y-9927898D02*
X13720105Y-9937422D01*
X13720105Y-9937422D02*
X13710582Y-9927898D01*
X13710582Y-9927898D02*
X13720105Y-9918374D01*
X13720105Y-9918374D02*
X13720105Y-9937422D01*
D12*
X12057900Y-10355700D02*
X12087900Y-10385700D01*
X12087900Y-10355700D02*
X12057900Y-10385700D01*
D11*
X12386772Y-10262184D02*
X12405820Y-10262184D01*
X12405820Y-10262184D02*
X12424867Y-10271708D01*
X12424867Y-10271708D02*
X12434391Y-10281231D01*
X12434391Y-10281231D02*
X12443915Y-10300279D01*
X12443915Y-10300279D02*
X12453439Y-10338374D01*
X12453439Y-10338374D02*
X12453439Y-10385993D01*
X12453439Y-10385993D02*
X12443915Y-10424089D01*
X12443915Y-10424089D02*
X12434391Y-10443136D01*
X12434391Y-10443136D02*
X12424867Y-10452660D01*
X12424867Y-10452660D02*
X12405820Y-10462184D01*
X12405820Y-10462184D02*
X12386772Y-10462184D01*
X12386772Y-10462184D02*
X12367724Y-10452660D01*
X12367724Y-10452660D02*
X12358201Y-10443136D01*
X12358201Y-10443136D02*
X12348677Y-10424089D01*
X12348677Y-10424089D02*
X12339153Y-10385993D01*
X12339153Y-10385993D02*
X12339153Y-10338374D01*
X12339153Y-10338374D02*
X12348677Y-10300279D01*
X12348677Y-10300279D02*
X12358201Y-10281231D01*
X12358201Y-10281231D02*
X12367724Y-10271708D01*
X12367724Y-10271708D02*
X12386772Y-10262184D01*
X12539153Y-10443136D02*
X12548677Y-10452660D01*
X12548677Y-10452660D02*
X12539153Y-10462184D01*
X12539153Y-10462184D02*
X12529629Y-10452660D01*
X12529629Y-10452660D02*
X12539153Y-10443136D01*
X12539153Y-10443136D02*
X12539153Y-10462184D01*
X12615343Y-10262184D02*
X12739153Y-10262184D01*
X12739153Y-10262184D02*
X12672486Y-10338374D01*
X12672486Y-10338374D02*
X12701058Y-10338374D01*
X12701058Y-10338374D02*
X12720105Y-10347898D01*
X12720105Y-10347898D02*
X12729629Y-10357422D01*
X12729629Y-10357422D02*
X12739153Y-10376470D01*
X12739153Y-10376470D02*
X12739153Y-10424089D01*
X12739153Y-10424089D02*
X12729629Y-10443136D01*
X12729629Y-10443136D02*
X12720105Y-10452660D01*
X12720105Y-10452660D02*
X12701058Y-10462184D01*
X12701058Y-10462184D02*
X12643915Y-10462184D01*
X12643915Y-10462184D02*
X12624867Y-10452660D01*
X12624867Y-10452660D02*
X12615343Y-10443136D01*
X12862962Y-10262184D02*
X12882010Y-10262184D01*
X12882010Y-10262184D02*
X12901058Y-10271708D01*
X12901058Y-10271708D02*
X12910582Y-10281231D01*
X12910582Y-10281231D02*
X12920105Y-10300279D01*
X12920105Y-10300279D02*
X12929629Y-10338374D01*
X12929629Y-10338374D02*
X12929629Y-10385993D01*
X12929629Y-10385993D02*
X12920105Y-10424089D01*
X12920105Y-10424089D02*
X12910582Y-10443136D01*
X12910582Y-10443136D02*
X12901058Y-10452660D01*
X12901058Y-10452660D02*
X12882010Y-10462184D01*
X12882010Y-10462184D02*
X12862962Y-10462184D01*
X12862962Y-10462184D02*
X12843915Y-10452660D01*
X12843915Y-10452660D02*
X12834391Y-10443136D01*
X12834391Y-10443136D02*
X12824867Y-10424089D01*
X12824867Y-10424089D02*
X12815343Y-10385993D01*
X12815343Y-10385993D02*
X12815343Y-10338374D01*
X12815343Y-10338374D02*
X12824867Y-10300279D01*
X12824867Y-10300279D02*
X12834391Y-10281231D01*
X12834391Y-10281231D02*
X12843915Y-10271708D01*
X12843915Y-10271708D02*
X12862962Y-10262184D01*
X13053439Y-10262184D02*
X13072486Y-10262184D01*
X13072486Y-10262184D02*
X13091534Y-10271708D01*
X13091534Y-10271708D02*
X13101058Y-10281231D01*
X13101058Y-10281231D02*
X13110582Y-10300279D01*
X13110582Y-10300279D02*
X13120105Y-10338374D01*
X13120105Y-10338374D02*
X13120105Y-10385993D01*
X13120105Y-10385993D02*
X13110582Y-10424089D01*
X13110582Y-10424089D02*
X13101058Y-10443136D01*
X13101058Y-10443136D02*
X13091534Y-10452660D01*
X13091534Y-10452660D02*
X13072486Y-10462184D01*
X13072486Y-10462184D02*
X13053439Y-10462184D01*
X13053439Y-10462184D02*
X13034391Y-10452660D01*
X13034391Y-10452660D02*
X13024867Y-10443136D01*
X13024867Y-10443136D02*
X13015343Y-10424089D01*
X13015343Y-10424089D02*
X13005820Y-10385993D01*
X13005820Y-10385993D02*
X13005820Y-10338374D01*
X13005820Y-10338374D02*
X13015343Y-10300279D01*
X13015343Y-10300279D02*
X13024867Y-10281231D01*
X13024867Y-10281231D02*
X13034391Y-10271708D01*
X13034391Y-10271708D02*
X13053439Y-10262184D01*
X13205820Y-10462184D02*
X13205820Y-10328850D01*
X13205820Y-10347898D02*
X13215343Y-10338374D01*
X13215343Y-10338374D02*
X13234391Y-10328850D01*
X13234391Y-10328850D02*
X13262963Y-10328850D01*
X13262963Y-10328850D02*
X13282010Y-10338374D01*
X13282010Y-10338374D02*
X13291534Y-10357422D01*
X13291534Y-10357422D02*
X13291534Y-10462184D01*
X13291534Y-10357422D02*
X13301058Y-10338374D01*
X13301058Y-10338374D02*
X13320105Y-10328850D01*
X13320105Y-10328850D02*
X13348677Y-10328850D01*
X13348677Y-10328850D02*
X13367724Y-10338374D01*
X13367724Y-10338374D02*
X13377248Y-10357422D01*
X13377248Y-10357422D02*
X13377248Y-10462184D01*
X13472486Y-10462184D02*
X13472486Y-10328850D01*
X13472486Y-10347898D02*
X13482010Y-10338374D01*
X13482010Y-10338374D02*
X13501058Y-10328850D01*
X13501058Y-10328850D02*
X13529629Y-10328850D01*
X13529629Y-10328850D02*
X13548677Y-10338374D01*
X13548677Y-10338374D02*
X13558201Y-10357422D01*
X13558201Y-10357422D02*
X13558201Y-10462184D01*
X13558201Y-10357422D02*
X13567724Y-10338374D01*
X13567724Y-10338374D02*
X13586772Y-10328850D01*
X13586772Y-10328850D02*
X13615343Y-10328850D01*
X13615343Y-10328850D02*
X13634391Y-10338374D01*
X13634391Y-10338374D02*
X13643915Y-10357422D01*
X13643915Y-10357422D02*
X13643915Y-10462184D01*
X14034391Y-10252660D02*
X13862963Y-10509803D01*
X14291534Y-10262184D02*
X14310582Y-10262184D01*
X14310582Y-10262184D02*
X14329629Y-10271708D01*
X14329629Y-10271708D02*
X14339153Y-10281231D01*
X14339153Y-10281231D02*
X14348677Y-10300279D01*
X14348677Y-10300279D02*
X14358201Y-10338374D01*
X14358201Y-10338374D02*
X14358201Y-10385993D01*
X14358201Y-10385993D02*
X14348677Y-10424089D01*
X14348677Y-10424089D02*
X14339153Y-10443136D01*
X14339153Y-10443136D02*
X14329629Y-10452660D01*
X14329629Y-10452660D02*
X14310582Y-10462184D01*
X14310582Y-10462184D02*
X14291534Y-10462184D01*
X14291534Y-10462184D02*
X14272486Y-10452660D01*
X14272486Y-10452660D02*
X14262963Y-10443136D01*
X14262963Y-10443136D02*
X14253439Y-10424089D01*
X14253439Y-10424089D02*
X14243915Y-10385993D01*
X14243915Y-10385993D02*
X14243915Y-10338374D01*
X14243915Y-10338374D02*
X14253439Y-10300279D01*
X14253439Y-10300279D02*
X14262963Y-10281231D01*
X14262963Y-10281231D02*
X14272486Y-10271708D01*
X14272486Y-10271708D02*
X14291534Y-10262184D01*
X14443915Y-10443136D02*
X14453439Y-10452660D01*
X14453439Y-10452660D02*
X14443915Y-10462184D01*
X14443915Y-10462184D02*
X14434391Y-10452660D01*
X14434391Y-10452660D02*
X14443915Y-10443136D01*
X14443915Y-10443136D02*
X14443915Y-10462184D01*
X14577248Y-10262184D02*
X14596296Y-10262184D01*
X14596296Y-10262184D02*
X14615344Y-10271708D01*
X14615344Y-10271708D02*
X14624867Y-10281231D01*
X14624867Y-10281231D02*
X14634391Y-10300279D01*
X14634391Y-10300279D02*
X14643915Y-10338374D01*
X14643915Y-10338374D02*
X14643915Y-10385993D01*
X14643915Y-10385993D02*
X14634391Y-10424089D01*
X14634391Y-10424089D02*
X14624867Y-10443136D01*
X14624867Y-10443136D02*
X14615344Y-10452660D01*
X14615344Y-10452660D02*
X14596296Y-10462184D01*
X14596296Y-10462184D02*
X14577248Y-10462184D01*
X14577248Y-10462184D02*
X14558201Y-10452660D01*
X14558201Y-10452660D02*
X14548677Y-10443136D01*
X14548677Y-10443136D02*
X14539153Y-10424089D01*
X14539153Y-10424089D02*
X14529629Y-10385993D01*
X14529629Y-10385993D02*
X14529629Y-10338374D01*
X14529629Y-10338374D02*
X14539153Y-10300279D01*
X14539153Y-10300279D02*
X14548677Y-10281231D01*
X14548677Y-10281231D02*
X14558201Y-10271708D01*
X14558201Y-10271708D02*
X14577248Y-10262184D01*
X14834391Y-10462184D02*
X14720106Y-10462184D01*
X14777248Y-10462184D02*
X14777248Y-10262184D01*
X14777248Y-10262184D02*
X14758201Y-10290755D01*
X14758201Y-10290755D02*
X14739153Y-10309803D01*
X14739153Y-10309803D02*
X14720106Y-10319327D01*
X15024867Y-10462184D02*
X14910582Y-10462184D01*
X14967725Y-10462184D02*
X14967725Y-10262184D01*
X14967725Y-10262184D02*
X14948677Y-10290755D01*
X14948677Y-10290755D02*
X14929629Y-10309803D01*
X14929629Y-10309803D02*
X14910582Y-10319327D01*
X15139153Y-10347898D02*
X15120106Y-10338374D01*
X15120106Y-10338374D02*
X15110582Y-10328850D01*
X15110582Y-10328850D02*
X15101058Y-10309803D01*
X15101058Y-10309803D02*
X15101058Y-10300279D01*
X15101058Y-10300279D02*
X15110582Y-10281231D01*
X15110582Y-10281231D02*
X15120106Y-10271708D01*
X15120106Y-10271708D02*
X15139153Y-10262184D01*
X15139153Y-10262184D02*
X15177248Y-10262184D01*
X15177248Y-10262184D02*
X15196296Y-10271708D01*
X15196296Y-10271708D02*
X15205820Y-10281231D01*
X15205820Y-10281231D02*
X15215344Y-10300279D01*
X15215344Y-10300279D02*
X15215344Y-10309803D01*
X15215344Y-10309803D02*
X15205820Y-10328850D01*
X15205820Y-10328850D02*
X15196296Y-10338374D01*
X15196296Y-10338374D02*
X15177248Y-10347898D01*
X15177248Y-10347898D02*
X15139153Y-10347898D01*
X15139153Y-10347898D02*
X15120106Y-10357422D01*
X15120106Y-10357422D02*
X15110582Y-10366946D01*
X15110582Y-10366946D02*
X15101058Y-10385993D01*
X15101058Y-10385993D02*
X15101058Y-10424089D01*
X15101058Y-10424089D02*
X15110582Y-10443136D01*
X15110582Y-10443136D02*
X15120106Y-10452660D01*
X15120106Y-10452660D02*
X15139153Y-10462184D01*
X15139153Y-10462184D02*
X15177248Y-10462184D01*
X15177248Y-10462184D02*
X15196296Y-10452660D01*
X15196296Y-10452660D02*
X15205820Y-10443136D01*
X15205820Y-10443136D02*
X15215344Y-10424089D01*
X15215344Y-10424089D02*
X15215344Y-10385993D01*
X15215344Y-10385993D02*
X15205820Y-10366946D01*
X15205820Y-10366946D02*
X15196296Y-10357422D01*
X15196296Y-10357422D02*
X15177248Y-10347898D01*
X15291534Y-10262184D02*
X15291534Y-10300279D01*
X15367725Y-10262184D02*
X15367725Y-10300279D01*
X15662963Y-10538374D02*
X15653439Y-10528850D01*
X15653439Y-10528850D02*
X15634391Y-10500279D01*
X15634391Y-10500279D02*
X15624868Y-10481231D01*
X15624868Y-10481231D02*
X15615344Y-10452660D01*
X15615344Y-10452660D02*
X15605820Y-10405041D01*
X15605820Y-10405041D02*
X15605820Y-10366946D01*
X15605820Y-10366946D02*
X15615344Y-10319327D01*
X15615344Y-10319327D02*
X15624868Y-10290755D01*
X15624868Y-10290755D02*
X15634391Y-10271708D01*
X15634391Y-10271708D02*
X15653439Y-10243136D01*
X15653439Y-10243136D02*
X15662963Y-10233612D01*
X15824868Y-10328850D02*
X15824868Y-10462184D01*
X15777248Y-10252660D02*
X15729629Y-10395517D01*
X15729629Y-10395517D02*
X15853439Y-10395517D01*
X15910582Y-10262184D02*
X16034391Y-10262184D01*
X16034391Y-10262184D02*
X15967725Y-10338374D01*
X15967725Y-10338374D02*
X15996296Y-10338374D01*
X15996296Y-10338374D02*
X16015344Y-10347898D01*
X16015344Y-10347898D02*
X16024868Y-10357422D01*
X16024868Y-10357422D02*
X16034391Y-10376470D01*
X16034391Y-10376470D02*
X16034391Y-10424089D01*
X16034391Y-10424089D02*
X16024868Y-10443136D01*
X16024868Y-10443136D02*
X16015344Y-10452660D01*
X16015344Y-10452660D02*
X15996296Y-10462184D01*
X15996296Y-10462184D02*
X15939153Y-10462184D01*
X15939153Y-10462184D02*
X15920106Y-10452660D01*
X15920106Y-10452660D02*
X15910582Y-10443136D01*
X16272487Y-10462184D02*
X16272487Y-10262184D01*
X16358201Y-10462184D02*
X16358201Y-10357422D01*
X16358201Y-10357422D02*
X16348677Y-10338374D01*
X16348677Y-10338374D02*
X16329630Y-10328850D01*
X16329630Y-10328850D02*
X16301058Y-10328850D01*
X16301058Y-10328850D02*
X16282010Y-10338374D01*
X16282010Y-10338374D02*
X16272487Y-10347898D01*
X16482010Y-10462184D02*
X16462963Y-10452660D01*
X16462963Y-10452660D02*
X16453439Y-10443136D01*
X16453439Y-10443136D02*
X16443915Y-10424089D01*
X16443915Y-10424089D02*
X16443915Y-10366946D01*
X16443915Y-10366946D02*
X16453439Y-10347898D01*
X16453439Y-10347898D02*
X16462963Y-10338374D01*
X16462963Y-10338374D02*
X16482010Y-10328850D01*
X16482010Y-10328850D02*
X16510582Y-10328850D01*
X16510582Y-10328850D02*
X16529630Y-10338374D01*
X16529630Y-10338374D02*
X16539153Y-10347898D01*
X16539153Y-10347898D02*
X16548677Y-10366946D01*
X16548677Y-10366946D02*
X16548677Y-10424089D01*
X16548677Y-10424089D02*
X16539153Y-10443136D01*
X16539153Y-10443136D02*
X16529630Y-10452660D01*
X16529630Y-10452660D02*
X16510582Y-10462184D01*
X16510582Y-10462184D02*
X16482010Y-10462184D01*
X16662963Y-10462184D02*
X16643915Y-10452660D01*
X16643915Y-10452660D02*
X16634391Y-10433612D01*
X16634391Y-10433612D02*
X16634391Y-10262184D01*
X16815344Y-10452660D02*
X16796296Y-10462184D01*
X16796296Y-10462184D02*
X16758201Y-10462184D01*
X16758201Y-10462184D02*
X16739153Y-10452660D01*
X16739153Y-10452660D02*
X16729630Y-10433612D01*
X16729630Y-10433612D02*
X16729630Y-10357422D01*
X16729630Y-10357422D02*
X16739153Y-10338374D01*
X16739153Y-10338374D02*
X16758201Y-10328850D01*
X16758201Y-10328850D02*
X16796296Y-10328850D01*
X16796296Y-10328850D02*
X16815344Y-10338374D01*
X16815344Y-10338374D02*
X16824868Y-10357422D01*
X16824868Y-10357422D02*
X16824868Y-10376470D01*
X16824868Y-10376470D02*
X16729630Y-10395517D01*
X16901058Y-10452660D02*
X16920106Y-10462184D01*
X16920106Y-10462184D02*
X16958201Y-10462184D01*
X16958201Y-10462184D02*
X16977249Y-10452660D01*
X16977249Y-10452660D02*
X16986773Y-10433612D01*
X16986773Y-10433612D02*
X16986773Y-10424089D01*
X16986773Y-10424089D02*
X16977249Y-10405041D01*
X16977249Y-10405041D02*
X16958201Y-10395517D01*
X16958201Y-10395517D02*
X16929630Y-10395517D01*
X16929630Y-10395517D02*
X16910582Y-10385993D01*
X16910582Y-10385993D02*
X16901058Y-10366946D01*
X16901058Y-10366946D02*
X16901058Y-10357422D01*
X16901058Y-10357422D02*
X16910582Y-10338374D01*
X16910582Y-10338374D02*
X16929630Y-10328850D01*
X16929630Y-10328850D02*
X16958201Y-10328850D01*
X16958201Y-10328850D02*
X16977249Y-10338374D01*
X17053439Y-10538374D02*
X17062963Y-10528850D01*
X17062963Y-10528850D02*
X17082011Y-10500279D01*
X17082011Y-10500279D02*
X17091534Y-10481231D01*
X17091534Y-10481231D02*
X17101058Y-10452660D01*
X17101058Y-10452660D02*
X17110582Y-10405041D01*
X17110582Y-10405041D02*
X17110582Y-10366946D01*
X17110582Y-10366946D02*
X17101058Y-10319327D01*
X17101058Y-10319327D02*
X17091534Y-10290755D01*
X17091534Y-10290755D02*
X17082011Y-10271708D01*
X17082011Y-10271708D02*
X17062963Y-10243136D01*
X17062963Y-10243136D02*
X17053439Y-10233612D01*
D13*
X12087900Y-10634700D02*
G75*
G03*
X12087900Y-10634700I-60000J0D01*
G01*
D11*
X12453439Y-10726184D02*
X12339153Y-10726184D01*
X12396296Y-10726184D02*
X12396296Y-10526184D01*
X12396296Y-10526184D02*
X12377248Y-10554755D01*
X12377248Y-10554755D02*
X12358201Y-10573803D01*
X12358201Y-10573803D02*
X12339153Y-10583327D01*
X12539153Y-10707136D02*
X12548677Y-10716660D01*
X12548677Y-10716660D02*
X12539153Y-10726184D01*
X12539153Y-10726184D02*
X12529629Y-10716660D01*
X12529629Y-10716660D02*
X12539153Y-10707136D01*
X12539153Y-10707136D02*
X12539153Y-10726184D01*
X12624867Y-10545231D02*
X12634391Y-10535708D01*
X12634391Y-10535708D02*
X12653439Y-10526184D01*
X12653439Y-10526184D02*
X12701058Y-10526184D01*
X12701058Y-10526184D02*
X12720105Y-10535708D01*
X12720105Y-10535708D02*
X12729629Y-10545231D01*
X12729629Y-10545231D02*
X12739153Y-10564279D01*
X12739153Y-10564279D02*
X12739153Y-10583327D01*
X12739153Y-10583327D02*
X12729629Y-10611898D01*
X12729629Y-10611898D02*
X12615343Y-10726184D01*
X12615343Y-10726184D02*
X12739153Y-10726184D01*
X12862962Y-10526184D02*
X12882010Y-10526184D01*
X12882010Y-10526184D02*
X12901058Y-10535708D01*
X12901058Y-10535708D02*
X12910582Y-10545231D01*
X12910582Y-10545231D02*
X12920105Y-10564279D01*
X12920105Y-10564279D02*
X12929629Y-10602374D01*
X12929629Y-10602374D02*
X12929629Y-10649993D01*
X12929629Y-10649993D02*
X12920105Y-10688089D01*
X12920105Y-10688089D02*
X12910582Y-10707136D01*
X12910582Y-10707136D02*
X12901058Y-10716660D01*
X12901058Y-10716660D02*
X12882010Y-10726184D01*
X12882010Y-10726184D02*
X12862962Y-10726184D01*
X12862962Y-10726184D02*
X12843915Y-10716660D01*
X12843915Y-10716660D02*
X12834391Y-10707136D01*
X12834391Y-10707136D02*
X12824867Y-10688089D01*
X12824867Y-10688089D02*
X12815343Y-10649993D01*
X12815343Y-10649993D02*
X12815343Y-10602374D01*
X12815343Y-10602374D02*
X12824867Y-10564279D01*
X12824867Y-10564279D02*
X12834391Y-10545231D01*
X12834391Y-10545231D02*
X12843915Y-10535708D01*
X12843915Y-10535708D02*
X12862962Y-10526184D01*
X13053439Y-10526184D02*
X13072486Y-10526184D01*
X13072486Y-10526184D02*
X13091534Y-10535708D01*
X13091534Y-10535708D02*
X13101058Y-10545231D01*
X13101058Y-10545231D02*
X13110582Y-10564279D01*
X13110582Y-10564279D02*
X13120105Y-10602374D01*
X13120105Y-10602374D02*
X13120105Y-10649993D01*
X13120105Y-10649993D02*
X13110582Y-10688089D01*
X13110582Y-10688089D02*
X13101058Y-10707136D01*
X13101058Y-10707136D02*
X13091534Y-10716660D01*
X13091534Y-10716660D02*
X13072486Y-10726184D01*
X13072486Y-10726184D02*
X13053439Y-10726184D01*
X13053439Y-10726184D02*
X13034391Y-10716660D01*
X13034391Y-10716660D02*
X13024867Y-10707136D01*
X13024867Y-10707136D02*
X13015343Y-10688089D01*
X13015343Y-10688089D02*
X13005820Y-10649993D01*
X13005820Y-10649993D02*
X13005820Y-10602374D01*
X13005820Y-10602374D02*
X13015343Y-10564279D01*
X13015343Y-10564279D02*
X13024867Y-10545231D01*
X13024867Y-10545231D02*
X13034391Y-10535708D01*
X13034391Y-10535708D02*
X13053439Y-10526184D01*
X13205820Y-10726184D02*
X13205820Y-10592850D01*
X13205820Y-10611898D02*
X13215343Y-10602374D01*
X13215343Y-10602374D02*
X13234391Y-10592850D01*
X13234391Y-10592850D02*
X13262963Y-10592850D01*
X13262963Y-10592850D02*
X13282010Y-10602374D01*
X13282010Y-10602374D02*
X13291534Y-10621422D01*
X13291534Y-10621422D02*
X13291534Y-10726184D01*
X13291534Y-10621422D02*
X13301058Y-10602374D01*
X13301058Y-10602374D02*
X13320105Y-10592850D01*
X13320105Y-10592850D02*
X13348677Y-10592850D01*
X13348677Y-10592850D02*
X13367724Y-10602374D01*
X13367724Y-10602374D02*
X13377248Y-10621422D01*
X13377248Y-10621422D02*
X13377248Y-10726184D01*
X13472486Y-10726184D02*
X13472486Y-10592850D01*
X13472486Y-10611898D02*
X13482010Y-10602374D01*
X13482010Y-10602374D02*
X13501058Y-10592850D01*
X13501058Y-10592850D02*
X13529629Y-10592850D01*
X13529629Y-10592850D02*
X13548677Y-10602374D01*
X13548677Y-10602374D02*
X13558201Y-10621422D01*
X13558201Y-10621422D02*
X13558201Y-10726184D01*
X13558201Y-10621422D02*
X13567724Y-10602374D01*
X13567724Y-10602374D02*
X13586772Y-10592850D01*
X13586772Y-10592850D02*
X13615343Y-10592850D01*
X13615343Y-10592850D02*
X13634391Y-10602374D01*
X13634391Y-10602374D02*
X13643915Y-10621422D01*
X13643915Y-10621422D02*
X13643915Y-10726184D01*
X14034391Y-10516660D02*
X13862963Y-10773803D01*
X14291534Y-10526184D02*
X14310582Y-10526184D01*
X14310582Y-10526184D02*
X14329629Y-10535708D01*
X14329629Y-10535708D02*
X14339153Y-10545231D01*
X14339153Y-10545231D02*
X14348677Y-10564279D01*
X14348677Y-10564279D02*
X14358201Y-10602374D01*
X14358201Y-10602374D02*
X14358201Y-10649993D01*
X14358201Y-10649993D02*
X14348677Y-10688089D01*
X14348677Y-10688089D02*
X14339153Y-10707136D01*
X14339153Y-10707136D02*
X14329629Y-10716660D01*
X14329629Y-10716660D02*
X14310582Y-10726184D01*
X14310582Y-10726184D02*
X14291534Y-10726184D01*
X14291534Y-10726184D02*
X14272486Y-10716660D01*
X14272486Y-10716660D02*
X14262963Y-10707136D01*
X14262963Y-10707136D02*
X14253439Y-10688089D01*
X14253439Y-10688089D02*
X14243915Y-10649993D01*
X14243915Y-10649993D02*
X14243915Y-10602374D01*
X14243915Y-10602374D02*
X14253439Y-10564279D01*
X14253439Y-10564279D02*
X14262963Y-10545231D01*
X14262963Y-10545231D02*
X14272486Y-10535708D01*
X14272486Y-10535708D02*
X14291534Y-10526184D01*
X14443915Y-10707136D02*
X14453439Y-10716660D01*
X14453439Y-10716660D02*
X14443915Y-10726184D01*
X14443915Y-10726184D02*
X14434391Y-10716660D01*
X14434391Y-10716660D02*
X14443915Y-10707136D01*
X14443915Y-10707136D02*
X14443915Y-10726184D01*
X14577248Y-10526184D02*
X14596296Y-10526184D01*
X14596296Y-10526184D02*
X14615344Y-10535708D01*
X14615344Y-10535708D02*
X14624867Y-10545231D01*
X14624867Y-10545231D02*
X14634391Y-10564279D01*
X14634391Y-10564279D02*
X14643915Y-10602374D01*
X14643915Y-10602374D02*
X14643915Y-10649993D01*
X14643915Y-10649993D02*
X14634391Y-10688089D01*
X14634391Y-10688089D02*
X14624867Y-10707136D01*
X14624867Y-10707136D02*
X14615344Y-10716660D01*
X14615344Y-10716660D02*
X14596296Y-10726184D01*
X14596296Y-10726184D02*
X14577248Y-10726184D01*
X14577248Y-10726184D02*
X14558201Y-10716660D01*
X14558201Y-10716660D02*
X14548677Y-10707136D01*
X14548677Y-10707136D02*
X14539153Y-10688089D01*
X14539153Y-10688089D02*
X14529629Y-10649993D01*
X14529629Y-10649993D02*
X14529629Y-10602374D01*
X14529629Y-10602374D02*
X14539153Y-10564279D01*
X14539153Y-10564279D02*
X14548677Y-10545231D01*
X14548677Y-10545231D02*
X14558201Y-10535708D01*
X14558201Y-10535708D02*
X14577248Y-10526184D01*
X14815344Y-10592850D02*
X14815344Y-10726184D01*
X14767725Y-10516660D02*
X14720106Y-10659517D01*
X14720106Y-10659517D02*
X14843915Y-10659517D01*
X14901058Y-10526184D02*
X15034391Y-10526184D01*
X15034391Y-10526184D02*
X14948677Y-10726184D01*
X15101058Y-10545231D02*
X15110582Y-10535708D01*
X15110582Y-10535708D02*
X15129629Y-10526184D01*
X15129629Y-10526184D02*
X15177248Y-10526184D01*
X15177248Y-10526184D02*
X15196296Y-10535708D01*
X15196296Y-10535708D02*
X15205820Y-10545231D01*
X15205820Y-10545231D02*
X15215344Y-10564279D01*
X15215344Y-10564279D02*
X15215344Y-10583327D01*
X15215344Y-10583327D02*
X15205820Y-10611898D01*
X15205820Y-10611898D02*
X15091534Y-10726184D01*
X15091534Y-10726184D02*
X15215344Y-10726184D01*
X15291534Y-10526184D02*
X15291534Y-10564279D01*
X15367725Y-10526184D02*
X15367725Y-10564279D01*
X15662963Y-10802374D02*
X15653439Y-10792850D01*
X15653439Y-10792850D02*
X15634391Y-10764279D01*
X15634391Y-10764279D02*
X15624868Y-10745231D01*
X15624868Y-10745231D02*
X15615344Y-10716660D01*
X15615344Y-10716660D02*
X15605820Y-10669041D01*
X15605820Y-10669041D02*
X15605820Y-10630946D01*
X15605820Y-10630946D02*
X15615344Y-10583327D01*
X15615344Y-10583327D02*
X15624868Y-10554755D01*
X15624868Y-10554755D02*
X15634391Y-10535708D01*
X15634391Y-10535708D02*
X15653439Y-10507136D01*
X15653439Y-10507136D02*
X15662963Y-10497612D01*
X15824868Y-10592850D02*
X15824868Y-10726184D01*
X15777248Y-10516660D02*
X15729629Y-10659517D01*
X15729629Y-10659517D02*
X15853439Y-10659517D01*
X16082010Y-10726184D02*
X16082010Y-10526184D01*
X16167725Y-10726184D02*
X16167725Y-10621422D01*
X16167725Y-10621422D02*
X16158201Y-10602374D01*
X16158201Y-10602374D02*
X16139153Y-10592850D01*
X16139153Y-10592850D02*
X16110582Y-10592850D01*
X16110582Y-10592850D02*
X16091534Y-10602374D01*
X16091534Y-10602374D02*
X16082010Y-10611898D01*
X16291534Y-10726184D02*
X16272487Y-10716660D01*
X16272487Y-10716660D02*
X16262963Y-10707136D01*
X16262963Y-10707136D02*
X16253439Y-10688089D01*
X16253439Y-10688089D02*
X16253439Y-10630946D01*
X16253439Y-10630946D02*
X16262963Y-10611898D01*
X16262963Y-10611898D02*
X16272487Y-10602374D01*
X16272487Y-10602374D02*
X16291534Y-10592850D01*
X16291534Y-10592850D02*
X16320106Y-10592850D01*
X16320106Y-10592850D02*
X16339153Y-10602374D01*
X16339153Y-10602374D02*
X16348677Y-10611898D01*
X16348677Y-10611898D02*
X16358201Y-10630946D01*
X16358201Y-10630946D02*
X16358201Y-10688089D01*
X16358201Y-10688089D02*
X16348677Y-10707136D01*
X16348677Y-10707136D02*
X16339153Y-10716660D01*
X16339153Y-10716660D02*
X16320106Y-10726184D01*
X16320106Y-10726184D02*
X16291534Y-10726184D01*
X16472487Y-10726184D02*
X16453439Y-10716660D01*
X16453439Y-10716660D02*
X16443915Y-10697612D01*
X16443915Y-10697612D02*
X16443915Y-10526184D01*
X16624868Y-10716660D02*
X16605820Y-10726184D01*
X16605820Y-10726184D02*
X16567725Y-10726184D01*
X16567725Y-10726184D02*
X16548677Y-10716660D01*
X16548677Y-10716660D02*
X16539153Y-10697612D01*
X16539153Y-10697612D02*
X16539153Y-10621422D01*
X16539153Y-10621422D02*
X16548677Y-10602374D01*
X16548677Y-10602374D02*
X16567725Y-10592850D01*
X16567725Y-10592850D02*
X16605820Y-10592850D01*
X16605820Y-10592850D02*
X16624868Y-10602374D01*
X16624868Y-10602374D02*
X16634391Y-10621422D01*
X16634391Y-10621422D02*
X16634391Y-10640470D01*
X16634391Y-10640470D02*
X16539153Y-10659517D01*
X16710582Y-10716660D02*
X16729630Y-10726184D01*
X16729630Y-10726184D02*
X16767725Y-10726184D01*
X16767725Y-10726184D02*
X16786773Y-10716660D01*
X16786773Y-10716660D02*
X16796296Y-10697612D01*
X16796296Y-10697612D02*
X16796296Y-10688089D01*
X16796296Y-10688089D02*
X16786773Y-10669041D01*
X16786773Y-10669041D02*
X16767725Y-10659517D01*
X16767725Y-10659517D02*
X16739153Y-10659517D01*
X16739153Y-10659517D02*
X16720106Y-10649993D01*
X16720106Y-10649993D02*
X16710582Y-10630946D01*
X16710582Y-10630946D02*
X16710582Y-10621422D01*
X16710582Y-10621422D02*
X16720106Y-10602374D01*
X16720106Y-10602374D02*
X16739153Y-10592850D01*
X16739153Y-10592850D02*
X16767725Y-10592850D01*
X16767725Y-10592850D02*
X16786773Y-10602374D01*
X16862963Y-10802374D02*
X16872487Y-10792850D01*
X16872487Y-10792850D02*
X16891534Y-10764279D01*
X16891534Y-10764279D02*
X16901058Y-10745231D01*
X16901058Y-10745231D02*
X16910582Y-10716660D01*
X16910582Y-10716660D02*
X16920106Y-10669041D01*
X16920106Y-10669041D02*
X16920106Y-10630946D01*
X16920106Y-10630946D02*
X16910582Y-10583327D01*
X16910582Y-10583327D02*
X16901058Y-10554755D01*
X16901058Y-10554755D02*
X16891534Y-10535708D01*
X16891534Y-10535708D02*
X16872487Y-10507136D01*
X16872487Y-10507136D02*
X16862963Y-10497612D01*
M02*
